<svg width="1465" height="168" viewBox="0 0 1465 168" fill="none" xmlns="http://www.w3.org/2000/svg">
<path d="M71.9834 45.2549C56.7943 45.2549 43.5863 50.0977 34.3408 59.3433V2.10889H0V165.447H34.3408V106.892C34.3408 85.0988 46.2277 74.9726 62.7376 74.9726C77.9267 74.9726 86.7321 83.778 86.7321 102.929V165.447H121.073V97.6463C121.073 61.5446 99.9403 45.2549 71.9834 45.2549V45.2549Z" fill="white"/>
<path d="M191.582 45.2534C172.651 45.2534 153.499 50.3164 140.511 59.5619L152.839 83.5564C161.424 76.7323 174.412 72.5498 186.959 72.5498C205.45 72.5498 214.256 81.1349 214.256 95.8837H186.959C150.858 95.8837 136.109 110.412 136.109 131.325C136.109 151.797 152.619 167.207 180.355 167.207C197.746 167.207 210.073 161.483 216.457 150.697V165.446H248.596V97.8649C248.596 61.9834 227.684 45.2534 191.582 45.2534V45.2534ZM188.941 144.093C176.833 144.093 169.569 138.369 169.569 129.784C169.569 121.859 174.632 115.916 190.702 115.916H214.256V128.023C210.293 138.81 200.387 144.093 188.941 144.093Z" fill="white"/>
<path d="M422.964 43.1445C405.133 43.1445 389.724 50.4088 380.259 62.5161C371.893 49.5283 357.805 43.1445 341.295 43.1445C326.106 43.1445 312.898 48.4277 304.093 58.5537V44.9056H271.293V163.337H305.633V103.901C305.633 82.7683 316.42 72.8622 331.609 72.8622C345.918 72.8622 354.063 81.6676 354.063 100.819V163.337H388.403V103.901C388.403 82.7683 399.19 72.8622 414.599 72.8622C428.467 72.8622 437.053 81.6676 437.053 100.819V163.337H471.393V95.5359C471.393 59.4342 451.141 43.1445 422.964 43.1445V43.1445Z" fill="white"/>
<path d="M645.462 45.2534C627.631 45.2534 612.222 52.5177 602.756 64.625C594.391 51.6371 580.303 45.2534 563.793 45.2534C548.604 45.2534 535.396 50.5366 526.59 60.6626V47.0144H493.791V165.446H528.131V106.01C528.131 84.8771 538.918 74.9711 554.107 74.9711C568.416 74.9711 576.56 83.7765 576.56 102.928V165.446H610.901V106.01C610.901 84.8771 621.688 74.9711 637.097 74.9711C650.965 74.9711 659.55 83.7765 659.55 102.928V165.446H693.891V97.6448C693.891 61.5431 673.639 45.2534 645.462 45.2534Z" fill="white"/>
<path d="M833.583 104.561C833.583 66.4784 806.727 43.1445 771.946 43.1445C735.844 43.1445 708.768 68.6798 708.768 104.121C708.768 139.342 735.404 165.098 776.348 165.098C797.701 165.098 814.211 158.494 825.218 145.946L806.947 126.134C798.802 133.839 789.777 137.581 777.229 137.581C759.178 137.581 746.631 128.556 743.329 113.807H832.923C833.143 110.945 833.583 107.203 833.583 104.561V104.561ZM772.166 69.12C787.575 69.12 798.802 78.8059 801.223 93.7748H742.888C745.31 78.5857 756.536 69.12 772.166 69.12Z" fill="white"/>
<path d="M880.86 60.5353V44.9059H848.06V163.337H882.401V107.424C882.401 84.7499 894.948 74.4036 913.88 74.4036C916.521 74.4036 918.723 74.6239 921.584 74.8436V43.1445C903.313 43.1445 889.225 49.0881 880.86 60.5349V60.5353Z" fill="white"/>
<path d="M1006.28 165.098C1031.16 165.098 1050.75 154.091 1059.34 135.16L1032.7 120.631C1026.32 132.078 1016.85 136.921 1006.06 136.921C988.673 136.921 975.025 124.814 975.025 104.121C975.025 83.4287 988.673 71.3214 1006.06 71.3214C1016.85 71.3214 1026.32 76.3845 1032.7 87.6113L1059.34 73.3026C1050.75 53.9309 1031.16 43.1445 1006.28 43.1445C967.76 43.1445 940.244 68.4597 940.244 104.121C940.244 139.783 967.76 165.098 1006.28 165.098V165.098Z" fill="#25C5F2"/>
<path d="M1125.57 165.098C1163.21 165.098 1190.51 139.783 1190.51 104.121C1190.51 68.4597 1163.21 43.1445 1125.57 43.1445C1087.93 43.1445 1060.41 68.4597 1060.41 104.121C1060.41 139.783 1087.93 165.098 1125.57 165.098ZM1125.57 136.921C1108.4 136.921 1095.19 124.593 1095.19 104.121C1095.19 83.6489 1108.4 71.3214 1125.57 71.3214C1142.74 71.3214 1155.73 83.6489 1155.73 104.121C1155.73 124.593 1142.74 136.921 1125.57 136.921Z" fill="#25C5F2"/>
<path d="M1291.16 0V57.4546C1282.57 47.7687 1270.24 43.1461 1255.72 43.1461C1222.26 43.1461 1196.5 66.9203 1196.5 104.123C1196.5 141.325 1222.26 165.099 1255.72 165.099C1271.57 165.099 1284.11 160.036 1292.7 149.69V163.338H1325.5V0H1291.16ZM1261.66 136.922C1244.49 136.922 1231.28 124.595 1231.28 104.123C1231.28 83.6504 1244.49 71.3229 1261.66 71.3229C1278.61 71.3229 1291.82 83.6504 1291.82 104.123C1291.82 124.595 1278.61 136.922 1261.66 136.922Z" fill="#25C5F2"/>
<path d="M1464.69 104.561C1464.69 66.4784 1437.83 43.1445 1403.05 43.1445C1366.95 43.1445 1339.87 68.6798 1339.87 104.121C1339.87 139.342 1366.51 165.098 1407.45 165.098C1428.8 165.098 1445.31 158.494 1456.32 145.946L1438.05 126.134C1429.91 133.839 1420.88 137.581 1408.33 137.581C1390.28 137.581 1377.73 128.556 1374.43 113.807H1464.03C1464.25 110.945 1464.69 107.203 1464.69 104.561V104.561ZM1403.27 69.12C1418.68 69.12 1429.91 78.8059 1432.33 93.7748H1373.99C1376.41 78.5857 1387.64 69.12 1403.27 69.12Z" fill="#25C5F2"/>
</svg>
