<svg width="1465" height="168" viewBox="0 0 1465 168" fill="none" xmlns="http://www.w3.org/2000/svg">
<path d="M71.9834 46.0479C56.7943 46.0479 43.5863 50.8906 34.3408 60.1362V2.90186H0V166.24H34.3408V107.685C34.3408 85.8918 46.2277 75.7656 62.7376 75.7656C77.9267 75.7656 86.7321 84.5709 86.7321 103.722V166.24H121.073V98.4392C121.073 62.3375 99.9403 46.0479 71.9834 46.0479V46.0479Z" fill="#143762"/>
<path d="M191.582 46.0464C172.651 46.0464 153.499 51.1094 140.511 60.3549L152.839 84.3494C161.424 77.5253 174.412 73.3427 186.959 73.3427C205.45 73.3427 214.256 81.9278 214.256 96.6767H186.959C150.858 96.6767 136.109 111.205 136.109 132.118C136.109 152.59 152.619 168 180.355 168C197.746 168 210.073 162.276 216.457 151.49V166.239H248.596V98.6579C248.596 62.7763 227.684 46.0464 191.582 46.0464V46.0464ZM188.941 144.886C176.833 144.886 169.569 139.162 169.569 130.577C169.569 122.652 174.632 116.709 190.702 116.709H214.256V128.816C210.293 139.603 200.387 144.886 188.941 144.886Z" fill="#143762"/>
<path d="M422.964 43.9375C405.133 43.9375 389.724 51.2018 380.259 63.3091C371.893 50.3212 357.805 43.9375 341.295 43.9375C326.106 43.9375 312.898 49.2206 304.093 59.3467V45.6985H271.293V164.13H305.633V104.694C305.633 83.5612 316.42 73.6552 331.609 73.6552C345.918 73.6552 354.063 82.4605 354.063 101.612V164.13H388.403V104.694C388.403 83.5612 399.19 73.6552 414.599 73.6552C428.467 73.6552 437.053 82.4605 437.053 101.612V164.13H471.393V96.3288C471.393 60.2271 451.141 43.9375 422.964 43.9375V43.9375Z" fill="#143762"/>
<path d="M645.462 46.0464C627.631 46.0464 612.222 53.3107 602.756 65.418C594.391 52.4301 580.303 46.0464 563.793 46.0464C548.604 46.0464 535.396 51.3295 526.59 61.4556V47.8074H493.791V166.239H528.131V106.803C528.131 85.6701 538.918 75.7641 554.107 75.7641C568.416 75.7641 576.56 84.5694 576.56 103.721V166.239H610.901V106.803C610.901 85.6701 621.688 75.7641 637.097 75.7641C650.965 75.7641 659.55 84.5694 659.55 103.721V166.239H693.891V98.4377C693.891 62.336 673.639 46.0464 645.462 46.0464Z" fill="#143762"/>
<path d="M833.583 105.354C833.583 67.2714 806.727 43.9375 771.946 43.9375C735.844 43.9375 708.768 69.4728 708.768 104.914C708.768 140.135 735.404 165.891 776.348 165.891C797.701 165.891 814.211 159.287 825.218 146.739L806.947 126.927C798.802 134.632 789.777 138.374 777.229 138.374C759.178 138.374 746.631 129.349 743.329 114.6H832.923C833.143 111.738 833.583 107.996 833.583 105.354V105.354ZM772.166 69.913C787.575 69.913 798.802 79.5988 801.223 94.5678H742.888C745.31 79.3787 756.536 69.913 772.166 69.913Z" fill="#143762"/>
<path d="M880.86 61.3282V45.6989H848.06V164.13H882.401V108.217C882.401 85.5428 894.948 75.1966 913.88 75.1966C916.521 75.1966 918.723 75.4168 921.584 75.6366V43.9375C903.313 43.9375 889.225 49.881 880.86 61.3279V61.3282Z" fill="#143762"/>
<path d="M1006.28 165.891C1031.16 165.891 1050.75 154.884 1059.34 135.953L1032.7 121.424C1026.32 132.871 1016.85 137.714 1006.06 137.714C988.673 137.714 975.025 125.607 975.025 104.914C975.025 84.2216 988.673 72.1144 1006.06 72.1144C1016.85 72.1144 1026.32 77.1774 1032.7 88.4042L1059.34 74.0956C1050.75 54.7239 1031.16 43.9375 1006.28 43.9375C967.76 43.9375 940.244 69.2527 940.244 104.914C940.244 140.576 967.76 165.891 1006.28 165.891V165.891Z" fill="#25C5F2"/>
<path d="M1125.57 165.891C1163.21 165.891 1190.51 140.576 1190.51 104.914C1190.51 69.2527 1163.21 43.9375 1125.57 43.9375C1087.93 43.9375 1060.41 69.2527 1060.41 104.914C1060.41 140.576 1087.93 165.891 1125.57 165.891ZM1125.57 137.714C1108.4 137.714 1095.19 125.386 1095.19 104.914C1095.19 84.4418 1108.4 72.1144 1125.57 72.1144C1142.74 72.1144 1155.73 84.4418 1155.73 104.914C1155.73 125.386 1142.74 137.714 1125.57 137.714Z" fill="#25C5F2"/>
<path d="M1291.16 0.792969V58.2475C1282.57 48.5617 1270.24 43.939 1255.72 43.939C1222.26 43.939 1196.5 67.7133 1196.5 104.916C1196.5 142.118 1222.26 165.892 1255.72 165.892C1271.57 165.892 1284.11 160.829 1292.7 150.483V164.131H1325.5V0.792969H1291.16ZM1261.66 137.715C1244.49 137.715 1231.28 125.388 1231.28 104.916C1231.28 84.4433 1244.49 72.1159 1261.66 72.1159C1278.61 72.1159 1291.82 84.4433 1291.82 104.916C1291.82 125.388 1278.61 137.715 1261.66 137.715Z" fill="#25C5F2"/>
<path d="M1464.69 105.354C1464.69 67.2714 1437.83 43.9375 1403.05 43.9375C1366.95 43.9375 1339.87 69.4728 1339.87 104.914C1339.87 140.135 1366.51 165.891 1407.45 165.891C1428.8 165.891 1445.31 159.287 1456.32 146.739L1438.05 126.927C1429.91 134.632 1420.88 138.374 1408.33 138.374C1390.28 138.374 1377.73 129.349 1374.43 114.6H1464.03C1464.25 111.738 1464.69 107.996 1464.69 105.354V105.354ZM1403.27 69.913C1418.68 69.913 1429.91 79.5988 1432.33 94.5678H1373.99C1376.41 79.3787 1387.64 69.913 1403.27 69.913Z" fill="#25C5F2"/>
</svg>
