<svg width="566" height="545" viewBox="0 0 566 545" fill="none" xmlns="http://www.w3.org/2000/svg">
<path d="M283 544.527C438.912 544.527 565.304 537.148 565.304 528.045C565.304 518.943 438.912 511.563 283 511.563C127.088 511.563 0.696289 518.943 0.696289 528.045C0.696289 537.148 127.088 544.527 283 544.527Z" fill="#D6D6D6"/>
<path d="M265.715 142.194C272.01 138.407 275.681 130.707 280.663 125.574C290.629 115.386 306.025 98.7499 308.351 89.2973L269.685 76.7773L256.879 106.199C254.172 113.023 242.114 122.992 235.42 126.231C231.501 128.156 227.215 129.862 222.864 131.568C214.127 134.886 204.743 137.828 195.658 140.786L197.95 156.326C203.24 156.371 208.528 156.162 213.795 155.7C219.027 155.231 224.276 154.605 229.524 153.666C234.914 152.748 240.238 151.519 245.469 149.988C250.85 148.454 260.168 145.512 265.715 142.194Z" fill="#01BDEC"/>
<path opacity="0.8" d="M265.715 142.194C272.01 138.407 275.681 130.707 280.663 125.574C290.629 115.386 306.025 98.7499 308.351 89.2973L269.685 76.7773L256.879 106.199C254.172 113.023 242.114 122.992 235.42 126.231C231.501 128.156 227.215 129.862 222.864 131.568C214.127 134.886 204.743 137.828 195.658 140.786L197.95 156.326C203.24 156.371 208.528 156.162 213.795 155.7C219.027 155.231 224.276 154.605 229.524 153.666C234.914 152.748 240.238 151.519 245.469 149.988C250.85 148.454 260.168 145.512 265.715 142.194Z" fill="white"/>
<path d="M225.355 156.5L218.346 131.601C218.346 131.601 177.737 138.58 176.442 149.176C175.113 160.131 203.382 159.864 225.355 156.5Z" fill="#1F4C8F"/>
<path d="M196.19 143.526L202.07 135.701C202.07 135.701 181.441 133.244 180.893 136.358C180.212 140.631 186.341 143.541 196.19 143.526Z" fill="#1F4C8F"/>
<path d="M383.291 310.197C382.862 310.199 382.445 310.061 382.112 309.806C374.09 303.765 348.628 282.372 357.198 260.978C364.207 243.419 381.215 228.63 401.544 222.354C409.354 220.155 417.334 218.533 425.411 217.502C430.876 216.673 436.523 215.812 441.921 214.591C466.751 208.973 479.258 193.527 474.558 174.277C472.415 165.56 466.685 158.518 460.606 151.053C455.773 145.137 450.807 139.018 447.8 132.007C447.8 132.007 447.8 131.881 447.8 131.819C444.96 122.257 448.996 113.039 452.916 104.181C453.83 102.099 454.693 100.128 455.49 98.1401C458.812 89.6421 461.885 80.5025 461.37 71.269C460.756 60.3141 452.966 48.4827 441.539 41.2993C423.684 30.047 390.732 19.9997 376.764 34.1317C375.574 35.4047 374.465 36.7425 373.442 38.1381C372.042 40.0182 370.475 41.7826 368.758 43.4121C365.898 45.8708 362.486 47.6885 358.776 48.7292C355.065 49.7698 351.153 50.0066 347.332 49.4217C343.368 48.786 339.612 47.2975 336.357 45.0718C333.102 42.8461 330.435 39.9432 328.564 36.5887C328.454 36.3793 328.389 36.1514 328.372 35.9181C328.356 35.6848 328.389 35.4507 328.469 35.2295C328.55 35.0083 328.676 34.8043 328.84 34.6293C329.005 34.4542 329.204 34.3117 329.428 34.2099C329.651 34.1056 329.894 34.0438 330.143 34.0283C330.392 34.0127 330.642 34.0437 330.878 34.1193C331.114 34.1949 331.332 34.3137 331.519 34.4689C331.706 34.6241 331.859 34.8127 331.969 35.0237C333.504 37.825 335.701 40.2563 338.392 42.1297C341.083 44.0032 344.195 45.2687 347.487 45.8283C350.78 46.388 354.165 46.2269 357.381 45.3575C360.597 44.4881 363.557 42.9336 366.034 40.8142C367.59 39.3258 369.012 37.7188 370.286 36.0097C371.406 34.5117 372.614 33.0748 373.907 31.7059C391.081 14.3657 428.268 28.6855 443.665 38.3259C456.039 46.1508 464.493 58.9838 465.174 71.0812C465.722 80.972 462.566 90.5341 459.045 99.392C458.248 101.442 457.384 103.524 456.437 105.558C452.783 113.853 448.996 122.413 451.454 130.77C454.261 137.296 459.061 143.181 463.712 148.877C469.758 156.311 476.019 163.995 478.345 173.479C483.477 194.528 469.575 212.025 442.901 218.066C437.37 219.318 431.656 220.194 426.126 221.024C418.258 222.02 410.483 223.589 402.873 225.719C383.607 231.65 367.512 245.641 360.885 262.199C353.229 281.354 377.129 301.324 384.636 306.989C384.923 307.224 385.129 307.535 385.226 307.882C385.322 308.229 385.306 308.595 385.179 308.933C385.052 309.27 384.819 309.564 384.512 309.776C384.205 309.988 383.837 310.107 383.457 310.119L383.291 310.197Z" fill="#01BDEC"/>
<path opacity="0.7" d="M383.291 310.197C382.862 310.199 382.445 310.061 382.112 309.806C374.09 303.765 348.628 282.372 357.198 260.978C364.207 243.419 381.215 228.63 401.544 222.354C409.354 220.155 417.334 218.533 425.411 217.502C430.876 216.673 436.523 215.812 441.921 214.591C466.751 208.973 479.258 193.527 474.558 174.277C472.415 165.56 466.685 158.518 460.606 151.053C455.773 145.137 450.807 139.018 447.8 132.007C447.8 132.007 447.8 131.881 447.8 131.819C444.96 122.257 448.996 113.039 452.916 104.181C453.83 102.099 454.693 100.128 455.49 98.1401C458.812 89.6421 461.885 80.5025 461.37 71.269C460.756 60.3141 452.966 48.4827 441.539 41.2993C423.684 30.047 390.732 19.9997 376.764 34.1317C375.574 35.4047 374.465 36.7425 373.442 38.1381C372.042 40.0182 370.475 41.7826 368.758 43.4121C365.898 45.8708 362.486 47.6885 358.776 48.7292C355.065 49.7698 351.153 50.0066 347.332 49.4217C343.368 48.786 339.612 47.2975 336.357 45.0718C333.102 42.8461 330.435 39.9432 328.564 36.5887C328.454 36.3793 328.389 36.1514 328.372 35.9181C328.356 35.6848 328.389 35.4507 328.469 35.2295C328.55 35.0083 328.676 34.8043 328.84 34.6293C329.005 34.4542 329.204 34.3117 329.428 34.2099C329.651 34.1056 329.894 34.0438 330.143 34.0283C330.392 34.0127 330.642 34.0437 330.878 34.1193C331.114 34.1949 331.332 34.3137 331.519 34.4689C331.706 34.6241 331.859 34.8127 331.969 35.0237C333.504 37.825 335.701 40.2563 338.392 42.1297C341.083 44.0032 344.195 45.2687 347.487 45.8283C350.78 46.388 354.165 46.2269 357.381 45.3575C360.597 44.4881 363.557 42.9336 366.034 40.8142C367.59 39.3258 369.012 37.7188 370.286 36.0097C371.406 34.5117 372.614 33.0748 373.907 31.7059C391.081 14.3657 428.268 28.6855 443.665 38.3259C456.039 46.1508 464.493 58.9838 465.174 71.0812C465.722 80.972 462.566 90.5341 459.045 99.392C458.248 101.442 457.384 103.524 456.437 105.558C452.783 113.853 448.996 122.413 451.454 130.77C454.261 137.296 459.061 143.181 463.712 148.877C469.758 156.311 476.019 163.995 478.345 173.479C483.477 194.528 469.575 212.025 442.901 218.066C437.37 219.318 431.656 220.194 426.126 221.024C418.258 222.02 410.483 223.589 402.873 225.719C383.607 231.65 367.512 245.641 360.885 262.199C353.229 281.354 377.129 301.324 384.636 306.989C384.923 307.224 385.129 307.535 385.226 307.882C385.322 308.229 385.306 308.595 385.179 308.933C385.052 309.27 384.819 309.564 384.512 309.776C384.205 309.988 383.837 310.107 383.457 310.119L383.291 310.197Z" fill="white"/>
<path opacity="0.2" d="M270.931 115.089C268.788 118.453 268.307 129.174 269.403 139.315C273.655 135.277 276.744 129.596 280.697 125.527L281.527 124.682C277.143 118.86 272.16 113.023 270.931 115.089Z" fill="black"/>
<path d="M269.651 76.6529C269.651 76.6529 259.686 114.98 288.021 178.378L363.941 165.67C362.645 155.92 346.335 111.678 348.993 64.2894C340.417 63.371 331.758 63.371 323.182 64.2894C312.318 65.5834 301.531 67.3959 290.861 69.72C283.63 71.5683 276.544 73.8847 269.651 76.6529Z" fill="#01BDEC"/>
<path opacity="0.8" d="M269.651 76.6529C269.651 76.6529 259.686 114.98 288.021 178.378L363.941 165.67C362.645 155.92 346.335 111.678 348.993 64.2894C340.417 63.371 331.758 63.371 323.182 64.2894C312.318 65.5834 301.531 67.3959 290.861 69.72C283.63 71.5683 276.544 73.8847 269.651 76.6529Z" fill="white"/>
<path opacity="0.2" d="M340.208 100.081C343.521 103.993 347.312 107.522 351.502 110.598C351.004 107.327 350.539 103.978 350.157 100.566L340.208 100.081Z" fill="black"/>
<path d="M288.021 178.456C288.021 178.456 249.555 220.554 252.694 256.893C256.016 294.704 297.771 356.662 297.771 356.662L323.149 344.674C323.149 344.674 306.54 279.555 293.652 260.634C307.703 238.583 326.255 212.26 339.061 171.898C315.609 175.842 288.021 178.456 288.021 178.456Z" fill="#01BDEC"/>
<path opacity="0.8" d="M288.021 178.456C288.021 178.456 249.555 220.554 252.694 256.893C256.016 294.704 297.771 356.662 297.771 356.662L323.149 344.674C323.149 344.674 306.54 279.555 293.652 260.634C307.703 238.583 326.255 212.26 339.061 171.898C315.609 175.842 288.021 178.456 288.021 178.456Z" fill="white"/>
<path opacity="0.2" d="M324.08 200.49C317.104 205.451 312.853 220.037 312.736 230.225C318.632 220.279 323.928 210.028 328.598 199.52C327.815 199.369 327.007 199.378 326.228 199.545C325.449 199.713 324.717 200.035 324.08 200.49Z" fill="black"/>
<path d="M298.452 354.409L320.044 341.998C320.388 341.841 320.779 341.8 321.151 341.883C321.523 341.965 321.854 342.166 322.087 342.452L331.305 357.445C331.601 357.743 331.824 358.099 331.958 358.488C332.091 358.877 332.132 359.289 332.076 359.695C332.02 360.1 331.87 360.489 331.636 360.833C331.403 361.177 331.091 361.469 330.723 361.686C324.362 364.816 323.88 364.534 315.958 368.635C311.091 371.17 301.358 376.913 294.632 380.403C287.905 383.893 283.288 377.649 285.281 375.208C292.672 366.209 294.715 362.688 296.459 356.803C296.605 356.299 296.857 355.828 297.199 355.417C297.542 355.006 297.967 354.663 298.452 354.409Z" fill="#01BDEC"/>
<path opacity="0.8" d="M298.452 354.409L320.044 341.998C320.388 341.841 320.779 341.8 321.151 341.883C321.523 341.965 321.854 342.166 322.087 342.452L331.305 357.445C331.601 357.743 331.824 358.099 331.958 358.488C332.091 358.877 332.132 359.289 332.076 359.695C332.02 360.1 331.87 360.489 331.636 360.833C331.403 361.177 331.091 361.469 330.723 361.686C324.362 364.816 323.88 364.534 315.958 368.635C311.091 371.17 301.358 376.913 294.632 380.403C287.905 383.893 283.288 377.649 285.281 375.208C292.672 366.209 294.715 362.688 296.459 356.803C296.605 356.299 296.857 355.828 297.199 355.417C297.542 355.006 297.967 354.663 298.452 354.409Z" fill="white"/>
<path d="M467.467 377.945L340.939 500.031L319.165 458.433L422.822 358.414L467.467 377.945Z" fill="#01BDEC"/>
<path opacity="0.4" d="M467.467 377.945L340.939 500.031L319.165 458.433L422.822 358.414L467.467 377.945Z" fill="black"/>
<path d="M452.649 405.99L370.352 485.414L333.496 437.478L400.929 372.421L452.649 405.99Z" fill="#01BDEC"/>
<path opacity="0.3" d="M452.649 405.99L370.352 485.414L333.496 437.478L400.929 372.421L452.649 405.99Z" fill="black"/>
<path d="M220.124 380.653C220.124 380.653 252.511 413.158 280.331 441.438C284.207 445.477 286.891 450.403 288.118 455.724C289.345 461.046 289.071 466.577 287.324 471.767C280.896 492.112 290.313 527.998 290.313 527.998C259.537 503.271 176.89 481.643 220.124 380.653Z" fill="#01BDEC"/>
<path opacity="0.3" d="M220.124 380.653C220.124 380.653 252.511 413.158 280.331 441.438C284.207 445.477 286.891 450.403 288.118 455.724C289.345 461.046 289.071 466.577 287.324 471.767C280.896 492.112 290.313 527.998 290.313 527.998C259.537 503.271 176.89 481.643 220.124 380.653Z" fill="black"/>
<path d="M337.948 266.972C337.948 266.972 373.209 296.707 403.87 322.248C408.247 325.8 413.536 328.21 419.209 329.24C424.882 330.27 430.742 329.882 436.207 328.116C457.567 321.575 496 329.603 496 329.603C468.977 301.198 444.08 223.856 337.948 266.972Z" fill="#01BDEC"/>
<path opacity="0.3" d="M337.948 266.972C337.948 266.972 373.209 296.707 403.87 322.248C408.247 325.8 413.536 328.21 419.209 329.24C424.882 330.27 430.742 329.882 436.207 328.116C457.567 321.575 496 329.603 496 329.603C468.977 301.198 444.08 223.856 337.948 266.972Z" fill="black"/>
<path d="M257.147 188.612C187.804 131.725 112.947 114.04 82.7518 143.227C52.5566 172.415 73.102 242.48 135.087 306.441L288.887 465.132C291.909 468.246 295.573 470.746 299.656 472.48C303.739 474.213 308.154 475.144 312.632 475.214C317.11 475.284 321.555 474.493 325.697 472.889C329.839 471.284 333.59 468.9 336.721 465.883L431.11 374.816C434.238 371.796 436.68 368.206 438.284 364.265C439.888 360.325 440.622 356.118 440.44 351.901C440.258 347.684 439.165 343.547 437.226 339.742C435.288 335.938 432.545 332.546 429.167 329.775L257.147 188.612Z" fill="#01BDEC"/>
<path opacity="0.1" d="M338.679 441.908C339.531 442.308 340.271 442.891 340.839 443.611C341.408 444.33 341.788 445.166 341.95 446.05C342.111 446.934 342.05 447.841 341.77 448.698C341.491 449.556 341.001 450.339 340.34 450.985C330.209 460.844 311.025 458.34 298.386 445.491L145.798 290.557C115.138 259.429 93.3305 227.957 82.0363 201.524C78.7145 193.699 90.2412 188.206 95.0412 195.264C110.338 217.784 133.142 244.671 161.693 272.7L322.303 430.155C327.036 434.896 332.57 438.868 338.679 441.908Z" fill="white"/>
<path opacity="0.1" d="M146.529 131.693C131.017 131.161 111.534 139.518 95.5231 154.949C79.512 170.38 71.141 188.941 72.0545 203.558C65.7929 177.97 69.0649 156.389 82.7341 143.181C96.4034 129.972 119.241 126.388 146.529 131.693Z" fill="black"/>
<path opacity="0.3" d="M200.149 305.708C232.679 305.098 258.525 279.756 257.878 249.104C257.23 218.453 230.335 194.099 197.805 194.709C165.275 195.319 139.429 220.661 140.076 251.313C140.724 281.964 167.619 306.318 200.149 305.708Z" fill="black"/>
<path d="M243.416 282.596C263.484 258.464 258.989 223.572 233.378 204.664C207.767 185.756 170.738 189.99 150.671 214.122C130.604 238.254 135.098 273.146 160.709 292.054C186.32 310.962 223.349 306.728 243.416 282.596Z" fill="white"/>
<path opacity="0.7" d="M237.215 281.4C256.557 260.493 254.25 228.769 232.062 210.543C209.873 192.318 176.206 194.492 156.863 215.399C137.52 236.306 139.827 268.03 162.016 286.256C184.204 304.481 217.872 302.307 237.215 281.4Z" fill="#01BDEC"/>
<g opacity="0.2">
<path d="M158.919 213.261C153.844 218.118 149.886 223.909 147.293 230.273L172.804 293.092C183.11 298.026 194.837 299.673 206.222 297.787L168.851 205.733C165.232 207.858 161.898 210.385 158.919 213.261Z" fill="white"/>
<path d="M172.771 203.652L210.623 296.91C216.448 295.473 221.974 293.119 226.966 289.946L189.928 198.534C183.937 199.289 178.131 201.021 172.771 203.652Z" fill="white"/>
</g>
<path d="M396.977 358.79L408.254 337.585C408.458 337.283 408.766 337.057 409.125 336.943C409.485 336.829 409.875 336.835 410.231 336.959L426.175 344.001C426.594 344.106 426.983 344.296 427.314 344.559C427.646 344.822 427.911 345.151 428.092 345.521C428.273 345.892 428.365 346.296 428.361 346.704C428.357 347.112 428.257 347.515 428.069 347.882C424.481 353.704 424.199 354.737 419.764 362.139C417.074 366.693 412.074 376.381 408.354 382.672C404.634 388.963 397.209 385.974 397.525 382.923C398.704 371.639 398.405 367.601 396.595 361.811C396.439 361.309 396.393 360.783 396.459 360.264C396.524 359.745 396.701 359.244 396.977 358.79Z" fill="#01BDEC"/>
<path opacity="0.8" d="M396.977 358.79L408.254 337.585C408.458 337.283 408.766 337.057 409.125 336.943C409.485 336.829 409.875 336.835 410.231 336.959L426.175 344.001C426.594 344.106 426.983 344.296 427.314 344.559C427.646 344.822 427.911 345.151 428.092 345.521C428.273 345.892 428.365 346.296 428.361 346.704C428.357 347.112 428.257 347.515 428.069 347.882C424.481 353.704 424.199 354.737 419.764 362.139C417.074 366.693 412.074 376.381 408.354 382.672C404.634 388.963 397.209 385.974 397.525 382.923C398.704 371.639 398.405 367.601 396.595 361.811C396.439 361.309 396.393 360.783 396.459 360.264C396.524 359.745 396.701 359.244 396.977 358.79Z" fill="white"/>
<path d="M314.929 173.949C314.929 173.949 315.078 240.555 330.276 272.747C346.918 308.084 398.007 362.859 398.007 362.859L417.274 344.627C417.274 344.627 392.975 294.547 370.42 267.77C369.954 234.78 373.741 198.785 364.44 168.878C348.093 171.727 331.544 173.422 314.929 173.949Z" fill="#01BDEC"/>
<path opacity="0.8" d="M314.929 173.949C314.929 173.949 315.078 240.555 330.276 272.747C346.918 308.084 398.007 362.859 398.007 362.859L417.274 344.627C417.274 344.627 392.975 294.547 370.42 267.77C369.954 234.78 373.741 198.785 364.44 168.878C348.093 171.727 331.544 173.422 314.929 173.949Z" fill="white"/>
<path d="M361.982 173.98C326.754 181.649 300.229 182.431 289.417 182.353C288.732 182.355 288.054 182.223 287.426 181.967C286.797 181.711 286.232 181.335 285.764 180.864C285.297 180.392 284.937 179.835 284.708 179.227C284.48 178.619 284.386 177.973 284.434 177.329C284.494 176.109 285.057 174.959 286.003 174.123C286.949 173.287 288.203 172.832 289.5 172.853C313.162 172.639 336.724 169.915 359.739 164.731C360.378 164.587 361.04 164.563 361.687 164.66C362.335 164.758 362.957 164.975 363.515 165.299C364.074 165.623 364.559 166.048 364.943 166.55C365.327 167.051 365.602 167.619 365.752 168.221C365.919 168.833 365.954 169.47 365.853 170.095C365.753 170.72 365.519 171.319 365.167 171.857C364.815 172.394 364.352 172.86 363.804 173.224C363.257 173.589 362.637 173.846 361.982 173.98Z" fill="#1F4C8F"/>
<path d="M401.046 104.542C398.057 98.0782 393.905 93.7901 388.307 89.2516C377.229 80.2216 358.959 66.2305 348.994 64.3525L336.886 101.177L368.709 112.241C375.004 116.467 376.415 119.253 378.276 126.123C379.388 130.161 380.202 134.464 380.999 138.846C382.478 147.595 383.507 156.906 384.487 165.89L401.096 167.235C402.321 162.387 403.28 157.482 403.97 152.54C404.651 147.642 405.166 142.681 405.365 137.641C405.623 132.487 405.534 127.323 405.099 122.179C404.768 116.132 403.4 110.176 401.046 104.542Z" fill="#01BDEC"/>
<path opacity="0.8" d="M401.046 104.542C398.057 98.0782 393.905 93.7901 388.307 89.2516C377.229 80.2216 358.959 66.2305 348.994 64.3525L336.886 101.177L368.709 112.241C375.004 116.467 376.415 119.253 378.276 126.123C379.388 130.161 380.202 134.464 380.999 138.846C382.478 147.595 383.507 156.906 384.487 165.89L401.096 167.235C402.321 162.387 403.28 157.482 403.97 152.54C404.651 147.642 405.166 142.681 405.365 137.641C405.623 132.487 405.534 127.323 405.099 122.179C404.768 116.132 403.4 110.176 401.046 104.542Z" fill="white"/>
<path d="M406.096 142.93H379.887C379.887 142.93 378.076 181.804 388.739 185.341C399.768 189.05 404.684 163.869 406.096 142.93Z" fill="#1F4C8F"/>
<path d="M387.295 165.952L380.552 158.815C380.552 158.815 374.257 175.044 378.094 177.048C381.931 179.051 385.12 175.06 387.295 165.952Z" fill="#1F4C8F"/>
<path opacity="0.2" d="M323.101 64.3193C312.265 65.6055 301.505 67.4076 290.863 69.7186C286.793 70.7201 282.874 71.9252 279.502 73.0363C286.75 75.5291 294.55 76.2505 302.173 75.1334C304.897 74.7085 307.556 73.9782 310.096 72.9581C317.403 71.2308 324.248 68.086 330.193 63.7246C327.851 63.8342 325.459 64.022 323.101 64.3193Z" fill="black"/>
<path d="M310.212 35.415C310.046 44.3199 311.242 60.455 318.716 65.0561C318.716 65.0561 318.816 68.9529 303.369 71.5039C290.763 73.5853 290.331 69.8137 290.331 69.8137C300.081 65.8073 298.469 58.7335 295.43 52.3483L310.212 35.415Z" fill="#FFB573"/>
<path opacity="0.2" d="M304.149 42.3164L295.413 52.348C296.136 53.8269 296.725 55.3609 297.174 56.9335C300.977 55.7597 305.561 50.8456 305.246 46.9331C305.175 45.3451 304.803 43.7817 304.149 42.3164Z" fill="black"/>
<path d="M281.328 34.4439C276.86 28.7316 271.811 20.4528 273.987 16.3525C276.163 12.2522 285.231 9.85777 289.35 12.8626C294.516 16.6655 290.745 28.4812 281.328 34.4439Z" fill="#1F4C8F"/>
<path d="M310.793 23.2559C311.175 35.1029 312.039 42.0359 306.309 48.6245C297.689 58.5466 281.727 54.4776 277.592 42.9749C273.888 32.6459 273.904 14.9301 285.68 9.17093C288.277 7.89492 291.177 7.26578 294.104 7.3433C297.032 7.42082 299.889 8.20243 302.406 9.61385C304.922 11.0253 307.014 13.0196 308.482 15.4073C309.95 17.795 310.746 20.4968 310.793 23.2559Z" fill="#FFB573"/>
<path d="M310.361 34.3202C304.78 29.6252 298.087 22.3793 299.366 17.9503C300.645 13.5214 309.016 9.48368 313.683 11.6903C319.546 14.4134 318.333 26.7143 310.361 34.3202Z" fill="#1F4C8F"/>
<path d="M304.149 17.2136C295.562 19.4515 271.279 23.9587 274.684 14.3183C278.089 4.67793 291.443 2.84688 296.276 4.92833C301.109 7.00977 304.929 1.50098 304.929 1.50098C305.627 3.06597 301.923 7.36972 296.625 8.07397C291.327 8.77822 319.512 4.16147 312.121 13.6141C304.73 23.0666 304.149 17.2136 304.149 17.2136Z" fill="#1F4C8F"/>
<path d="M317.72 35.774C317.01 37.0903 316.032 38.2615 314.84 39.2204C313.649 40.1792 312.268 40.9067 310.777 41.3611C306.791 42.5661 304.648 39.2327 305.628 35.6019C306.509 32.331 309.664 27.7769 313.734 28.1681C314.622 28.2662 315.471 28.5721 316.202 29.0581C316.933 29.5441 317.524 30.1946 317.92 30.9506C318.316 31.7065 318.505 32.5438 318.47 33.3863C318.435 34.2287 318.177 35.0495 317.72 35.774Z" fill="#FFB573"/>
<path d="M292.158 28.1377C292.258 29.0924 291.793 29.9218 291.128 29.9844C290.464 30.047 289.849 29.3115 289.75 28.4194C289.65 27.5274 290.115 26.6353 290.78 26.5884C291.444 26.5414 292.058 27.1831 292.158 28.1377Z" fill="#1F4C8F"/>
<path d="M280.648 29.1394C280.747 30.094 280.282 30.9235 279.618 30.9704C278.954 31.0174 278.322 30.2975 278.239 29.4054C278.156 28.5134 278.605 27.6213 279.269 27.5587C279.934 27.4961 280.548 28.1691 280.648 29.1394Z" fill="#1F4C8F"/>
<path d="M284.352 29.2959C283.425 32.3334 282.055 35.2353 280.283 37.919C281.028 38.335 281.861 38.5901 282.722 38.6659C283.584 38.7416 284.453 38.6362 285.266 38.3572L284.352 29.2959Z" fill="#ED893E"/>
<path d="M293.519 38.8104C292.111 39.927 290.37 40.6049 288.536 40.7509C288.457 40.7509 288.381 40.7213 288.325 40.6684C288.269 40.6156 288.237 40.544 288.237 40.4692C288.237 40.3945 288.269 40.3229 288.325 40.2701C288.381 40.2172 288.457 40.1875 288.536 40.1875C289.807 40.1066 291.039 39.744 292.133 39.1294C293.227 38.5148 294.151 37.6655 294.831 36.6506C294.848 36.6177 294.873 36.5885 294.903 36.565C294.933 36.5414 294.967 36.5239 295.005 36.5136C295.042 36.5033 295.082 36.5004 295.12 36.5051C295.159 36.5099 295.196 36.5221 295.23 36.5411C295.3 36.5746 295.353 36.6329 295.378 36.7032C295.403 36.7735 295.397 36.8502 295.363 36.9167C294.871 37.6452 294.247 38.2862 293.519 38.8104Z" fill="#1F4C8F"/>
<path d="M295.613 24.2093C295.502 24.3107 295.353 24.3673 295.198 24.3673C295.043 24.3673 294.894 24.3107 294.783 24.2093C294.293 23.67 293.676 23.2471 292.98 22.9752C292.285 22.7032 291.531 22.5899 290.78 22.6443C290.701 22.6577 290.62 22.6561 290.543 22.6397C290.465 22.6232 290.391 22.5921 290.326 22.5484C290.261 22.5046 290.206 22.449 290.164 22.3848C290.122 22.3207 290.094 22.2492 290.082 22.1748C290.058 22.0257 290.097 21.8735 290.19 21.7508C290.283 21.628 290.423 21.5443 290.581 21.5175C291.53 21.4291 292.489 21.5563 293.376 21.8885C294.263 22.2207 295.053 22.7481 295.679 23.4268C295.735 23.4791 295.779 23.5413 295.81 23.6098C295.84 23.6783 295.855 23.7517 295.855 23.8259C295.855 23.9 295.84 23.9734 295.81 24.0419C295.779 24.1104 295.735 24.1726 295.679 24.2249L295.613 24.2093Z" fill="#1F4C8F"/>
<path d="M275.582 25.7113C275.5 25.7758 275.401 25.8184 275.296 25.8349C275.191 25.8515 275.083 25.8412 274.984 25.8052C274.91 25.7809 274.842 25.7427 274.784 25.6929C274.726 25.6431 274.679 25.5827 274.646 25.5154C274.614 25.4482 274.596 25.3754 274.594 25.3015C274.592 25.2275 274.606 25.154 274.635 25.0853C274.951 24.237 275.478 23.4721 276.172 22.8542C276.865 22.2363 277.705 21.7833 278.621 21.5328C278.699 21.5174 278.778 21.5165 278.856 21.5301C278.934 21.5438 279.008 21.5718 279.075 21.6125C279.141 21.6532 279.198 21.7058 279.243 21.7673C279.288 21.8288 279.319 21.898 279.335 21.971C279.352 22.0439 279.353 22.1192 279.338 22.1925C279.324 22.2658 279.294 22.3357 279.251 22.3982C279.208 22.4607 279.152 22.5145 279.086 22.5567C279.021 22.5989 278.948 22.6285 278.87 22.6439C278.149 22.8488 277.489 23.2125 276.946 23.7051C276.403 24.1976 275.992 24.8049 275.748 25.4766C275.712 25.5657 275.655 25.646 275.582 25.7113Z" fill="#1F4C8F"/>
<path d="M338.215 30.8918C342.102 50.2508 330.06 68.5613 311.076 72.8494C310.346 73.0059 309.598 73.1468 308.851 73.272C299.698 74.7477 290.292 72.8723 282.559 68.0292C287.812 69.2609 293.309 69.2303 298.546 67.9403C303.783 66.6502 308.593 64.1421 312.534 60.6457C316.475 57.1493 319.422 52.7766 321.104 47.9284C322.786 43.0803 323.15 37.9119 322.161 32.897C321.173 27.8821 318.864 23.1812 315.447 19.2253C312.03 15.2695 307.614 12.1852 302.603 10.2553C297.592 8.32534 292.147 7.61152 286.768 8.17925C281.388 8.74698 276.246 10.5781 271.812 13.5047C275.532 8.79822 280.489 5.08705 286.196 2.73753C288.757 1.69906 291.438 0.947919 294.185 0.499586C314.465 -2.81821 334.163 10.7347 338.215 30.8918Z" fill="#01BDEC"/>
<path opacity="0.8" d="M338.215 30.8918C342.102 50.2508 330.06 68.5613 311.076 72.8494C310.346 73.0059 309.598 73.1468 308.851 73.272C299.698 74.7477 290.292 72.8723 282.559 68.0292C287.812 69.2609 293.309 69.2303 298.546 67.9403C303.783 66.6502 308.593 64.1421 312.534 60.6457C316.475 57.1493 319.422 52.7766 321.104 47.9284C322.786 43.0803 323.15 37.9119 322.161 32.897C321.173 27.8821 318.864 23.1812 315.447 19.2253C312.03 15.2695 307.614 12.1852 302.603 10.2553C297.592 8.32534 292.147 7.61152 286.768 8.17925C281.388 8.74698 276.246 10.5781 271.812 13.5047C275.532 8.79822 280.489 5.08705 286.196 2.73753C288.757 1.69906 291.438 0.947919 294.185 0.499586C314.465 -2.81821 334.163 10.7347 338.215 30.8918Z" fill="white"/>
<path d="M330.723 33.2398C334.361 50.5487 325.857 66.809 311.158 72.8499C308.785 73.8096 306.298 74.4979 303.75 74.9001C291.759 76.7468 279.867 72.0048 271.645 63.2565C276.468 66.5057 282.147 68.4429 288.059 68.8564C293.972 69.2698 299.892 68.1436 305.171 65.6009C310.45 63.0581 314.886 59.1967 317.994 54.4387C321.101 49.6807 322.76 44.2094 322.79 38.6228C322.82 33.0362 321.219 27.5494 318.163 22.7622C315.106 17.975 310.712 14.0717 305.46 11.479C300.208 8.88626 294.301 7.70398 288.384 8.06134C282.467 8.4187 276.768 10.3019 271.911 13.5052C268.764 15.56 266.04 18.1373 263.872 21.1111C265.813 16.6033 268.855 12.5903 272.751 9.39798C276.647 6.20565 281.287 3.92392 286.294 2.73805C287.008 2.58155 287.723 2.45635 288.437 2.33115C307.471 -0.657997 326.438 13.2079 330.723 33.2398Z" fill="#01BDEC"/>
<path opacity="0.6" d="M330.723 33.2398C334.361 50.5487 325.857 66.809 311.158 72.8499C308.785 73.8096 306.298 74.4979 303.75 74.9001C291.759 76.7468 279.867 72.0048 271.645 63.2565C276.468 66.5057 282.147 68.4429 288.059 68.8564C293.972 69.2698 299.892 68.1436 305.171 65.6009C310.45 63.0581 314.886 59.1967 317.994 54.4387C321.101 49.6807 322.76 44.2094 322.79 38.6228C322.82 33.0362 321.219 27.5494 318.163 22.7622C315.106 17.975 310.712 14.0717 305.46 11.479C300.208 8.88626 294.301 7.70398 288.384 8.06134C282.467 8.4187 276.768 10.3019 271.911 13.5052C268.764 15.56 266.04 18.1373 263.872 21.1111C265.813 16.6033 268.855 12.5903 272.751 9.39798C276.647 6.20565 281.287 3.92392 286.294 2.73805C287.008 2.58155 287.723 2.45635 288.437 2.33115C307.471 -0.657997 326.438 13.2079 330.723 33.2398Z" fill="white"/>
<path opacity="0.2" d="M322.685 37.0099C322.99 43.0293 321.393 48.9986 318.098 54.1631C314.802 59.3276 309.955 63.4554 304.17 66.0245C298.385 68.5936 291.921 69.4886 285.596 68.5964C279.271 67.7042 273.369 65.0649 268.636 61.0121C263.903 56.9593 260.551 51.6751 259.005 45.8276C257.459 39.9801 257.788 33.832 259.95 28.1606C262.112 22.4892 266.01 17.5493 271.152 13.9654C276.293 10.3815 282.447 8.31465 288.836 8.02615C293.078 7.83456 297.319 8.43231 301.316 9.78527C305.313 11.1382 308.989 13.2199 312.132 15.9114C315.275 18.6028 317.825 21.8514 319.636 25.4715C321.446 29.0917 322.482 33.0124 322.685 37.0099Z" fill="#01BDEC"/>
<path opacity="0.2" d="M258.076 39.921C258.486 47.994 262.282 55.583 268.63 61.0185C274.978 66.454 283.358 69.2908 291.925 68.9048C300.493 68.5188 308.547 64.9416 314.316 58.9602C320.084 52.9788 323.095 45.0831 322.685 37.0101C308.169 33.9271 273.058 31.7674 258.076 39.921Z" fill="#01BDEC"/>
<path opacity="0.2" d="M327.569 111.006C312.752 111.843 298.019 113.7 283.489 116.561L282.675 115.857L325.991 87.9219L326.788 88.6261C326.788 88.6261 327.137 103.587 327.569 111.006Z" fill="black"/>
<path d="M326.771 110.301C311.948 111.14 297.21 112.997 282.674 115.857C281.86 108.361 281.229 100.817 280.83 93.2115C295.735 90.4658 310.825 88.6984 325.99 87.9219C326.079 95.4234 326.339 102.883 326.771 110.301Z" fill="white"/>
<path d="M290.378 109.029L288.663 95.3408L292.09 94.9115L292.223 95.9713L289.888 96.2637L291.339 107.847L293.674 107.555L293.805 108.6L290.378 109.029Z" fill="#1F4C8F"/>
<path d="M301.053 93.7885L302.767 107.477L299.341 107.906L299.21 106.861L301.544 106.568L300.093 94.985L297.759 95.2775L297.626 94.2178L301.053 93.7885Z" fill="#1F4C8F"/>
<path d="M293.594 99.2221L303.987 97.9201C304.577 97.8462 305.12 98.3254 305.204 98.9945C305.287 99.6636 304.88 100.262 304.29 100.336L293.897 101.638C293.307 101.712 292.764 101.232 292.681 100.563C292.597 99.8941 293.004 99.296 293.594 99.2221Z" fill="#25C5F2"/>
<path opacity="0.3" d="M317.32 95.1515C317.317 95.7023 317.146 96.2408 316.828 96.7029C316.51 97.165 316.058 97.5315 315.525 97.7589C314.993 97.9862 314.403 98.0649 313.824 97.9856C313.246 97.9063 312.703 97.6723 312.262 97.3114C311.82 96.9505 311.498 96.4778 311.332 95.9494C311.167 95.421 311.167 94.8591 311.33 94.3303C311.494 93.8015 311.815 93.328 312.255 92.9659C312.696 92.6038 313.237 92.3684 313.816 92.2876C314.681 92.2398 315.532 92.5126 316.186 93.0477C316.841 93.5827 317.248 94.3377 317.32 95.1515Z" fill="#01BDEC"/>
<path opacity="0.3" d="M317.587 104.056C317.584 104.608 317.413 105.147 317.095 105.61C316.776 106.072 316.323 106.439 315.79 106.666C315.257 106.894 314.665 106.972 314.086 106.892C313.507 106.811 312.964 106.576 312.523 106.214C312.082 105.851 311.76 105.377 311.596 104.847C311.433 104.318 311.434 103.755 311.6 103.226C311.766 102.697 312.09 102.224 312.533 101.864C312.976 101.503 313.519 101.27 314.099 101.192C314.961 101.148 315.808 101.423 316.459 101.958C317.11 102.492 317.515 103.245 317.587 104.056Z" fill="#01BDEC"/>
<path d="M218.82 340.287L211.361 344.775L209.585 343.038L212.5 338.135L207.628 341.125L205.852 339.389L210.215 331.872L211.785 333.407L208.364 338.639L213.724 335.304L215.337 336.881L212.079 342.272L217.242 338.743L218.82 340.287ZM220.596 348.971C220.462 349.109 220.313 349.243 220.151 349.375L216.83 346.128C216.562 346.448 216.433 346.769 216.442 347.092C216.463 347.414 216.596 347.695 216.842 347.936C217.208 348.294 217.614 348.388 218.059 348.219L219.62 349.746C219.233 349.982 218.81 350.123 218.352 350.168C217.9 350.218 217.447 350.161 216.992 349.996C216.538 349.832 216.116 349.559 215.727 349.179C215.258 348.72 214.939 348.212 214.768 347.654C214.598 347.095 214.592 346.53 214.749 345.957C214.907 345.383 215.229 344.848 215.716 344.35C216.202 343.853 216.727 343.516 217.291 343.34C217.861 343.169 218.426 343.163 218.988 343.321C219.55 343.479 220.068 343.79 220.543 344.254C221.006 344.707 221.323 345.207 221.493 345.754C221.663 346.3 221.672 346.852 221.52 347.408C221.374 347.97 221.066 348.491 220.596 348.971ZM219.472 347.117C219.718 346.865 219.828 346.581 219.802 346.265C219.776 345.948 219.634 345.664 219.376 345.412C219.13 345.172 218.852 345.039 218.54 345.015C218.235 344.995 217.933 345.098 217.636 345.322L219.472 347.117ZM226.629 347.285L220.421 353.634L218.954 352.199L225.162 345.85L226.629 347.285ZM223.533 351.994C224.02 351.497 224.545 351.16 225.109 350.984C225.678 350.813 226.241 350.804 226.797 350.956C227.359 351.114 227.874 351.422 228.343 351.881C228.944 352.468 229.291 353.115 229.383 353.821C229.482 354.533 229.314 355.236 228.881 355.931L227.319 354.404C227.546 353.91 227.47 353.478 227.093 353.108C226.824 352.846 226.506 352.742 226.139 352.797C225.777 352.846 225.406 353.065 225.026 353.454C224.646 353.843 224.432 354.222 224.385 354.59C224.344 354.952 224.458 355.265 224.727 355.528C225.104 355.897 225.538 355.963 226.027 355.726L227.589 357.252C226.915 357.69 226.218 357.87 225.499 357.794C224.78 357.717 224.123 357.388 223.528 356.806C223.059 356.347 222.739 355.839 222.569 355.281C222.404 354.728 222.401 354.165 222.558 353.592C222.722 353.025 223.047 352.492 223.533 351.994ZM228.791 361.953C228.322 361.494 227.997 360.98 227.815 360.411C227.639 359.847 227.624 359.273 227.77 358.689C227.922 358.11 228.241 357.572 228.728 357.074C229.209 356.582 229.74 356.256 230.321 356.097C230.907 355.932 231.487 355.934 232.061 356.103C232.634 356.272 233.155 356.586 233.624 357.044C234.093 357.503 234.418 358.017 234.6 358.586C234.782 359.156 234.797 359.735 234.645 360.325C234.499 360.91 234.185 361.448 233.704 361.94C233.223 362.432 232.687 362.757 232.095 362.917C231.514 363.076 230.934 363.068 230.355 362.894C229.781 362.725 229.26 362.411 228.791 361.953ZM230.033 360.683C230.313 360.957 230.651 361.086 231.047 361.07C231.449 361.06 231.837 360.863 232.211 360.48C232.586 360.097 232.777 359.707 232.784 359.311C232.796 358.921 232.663 358.588 232.382 358.314C232.096 358.035 231.758 357.905 231.368 357.927C230.984 357.942 230.601 358.145 230.221 358.534C229.846 358.917 229.65 359.301 229.631 359.686C229.619 360.076 229.753 360.409 230.033 360.683ZM242.983 366.229C243.578 366.811 243.873 367.452 243.87 368.154C243.872 368.861 243.56 369.535 242.934 370.175L240.199 372.973L238.74 371.546L241.282 368.947C241.584 368.638 241.733 368.319 241.73 367.991C241.737 367.663 241.598 367.359 241.312 367.079C241.026 366.8 240.716 366.665 240.383 366.674C240.06 366.683 239.748 366.842 239.446 367.151L236.904 369.751L235.445 368.325L237.987 365.725C238.289 365.416 238.439 365.098 238.435 364.77C238.443 364.441 238.303 364.137 238.017 363.858C237.731 363.578 237.422 363.443 237.088 363.452C236.766 363.462 236.453 363.621 236.151 363.93L233.609 366.529L232.142 365.095L236.823 360.307L238.291 361.742L237.703 362.342C238.048 362.288 238.396 362.32 238.748 362.441C239.106 362.556 239.436 362.761 239.739 363.058C240.1 363.41 240.345 363.801 240.474 364.229C240.609 364.663 240.617 365.101 240.497 365.544C240.92 365.443 241.356 365.45 241.804 365.563C242.252 365.677 242.645 365.899 242.983 366.229ZM248.154 375.918C248.02 376.055 247.871 376.19 247.709 376.322L244.388 373.075C244.12 373.395 243.991 373.716 244 374.038C244.021 374.36 244.154 374.642 244.4 374.882C244.766 375.24 245.172 375.335 245.617 375.165L247.178 376.692C246.791 376.929 246.368 377.069 245.91 377.114C245.458 377.164 245.005 377.107 244.551 376.942C244.096 376.778 243.675 376.505 243.286 376.125C242.817 375.666 242.497 375.158 242.327 374.6C242.156 374.042 242.15 373.476 242.307 372.903C242.465 372.33 242.787 371.794 243.274 371.297C243.76 370.799 244.286 370.462 244.849 370.286C245.419 370.116 245.984 370.109 246.546 370.267C247.108 370.425 247.626 370.736 248.101 371.2C248.564 371.653 248.881 372.153 249.051 372.7C249.222 373.247 249.231 373.798 249.078 374.354C248.932 374.916 248.624 375.437 248.154 375.918ZM247.03 374.063C247.276 373.812 247.386 373.528 247.36 373.211C247.334 372.895 247.192 372.611 246.935 372.359C246.689 372.118 246.41 371.986 246.099 371.961C245.793 371.942 245.491 372.044 245.194 372.268L247.03 374.063ZM252.215 382.288L250.999 383.533L250.252 382.803C249.72 382.282 249.431 381.748 249.385 381.2C249.345 380.646 249.613 380.075 250.189 379.485L252.052 377.581L251.468 377.01L252.66 375.792L253.243 376.362L254.384 375.195L255.851 376.63L254.71 377.797L255.671 378.737L254.48 379.955L253.519 379.015L251.64 380.937C251.5 381.08 251.434 381.217 251.441 381.347C251.448 381.477 251.531 381.62 251.692 381.777L252.215 382.288ZM253.928 386.531C253.459 386.073 253.134 385.559 252.952 384.989C252.776 384.426 252.761 383.851 252.907 383.267C253.059 382.688 253.378 382.15 253.865 381.653C254.346 381.161 254.877 380.835 255.458 380.676C256.044 380.511 256.624 380.513 257.197 380.682C257.77 380.851 258.292 381.164 258.761 381.623C259.23 382.082 259.555 382.596 259.737 383.165C259.919 383.734 259.934 384.314 259.782 384.904C259.636 385.488 259.322 386.027 258.841 386.518C258.36 387.01 257.823 387.336 257.231 387.495C256.65 387.655 256.07 387.647 255.491 387.473C254.918 387.304 254.397 386.99 253.928 386.531ZM255.17 385.261C255.45 385.535 255.788 385.665 256.184 385.649C256.585 385.639 256.973 385.442 257.348 385.059C257.723 384.675 257.914 384.286 257.921 383.89C257.933 383.499 257.799 383.167 257.519 382.893C257.233 382.613 256.895 382.484 256.505 382.505C256.12 382.521 255.738 382.723 255.358 383.112C254.983 383.496 254.786 383.88 254.768 384.265C254.755 384.655 254.889 384.987 255.17 385.261Z" fill="#0F3665"/>
<path d="M266.772 389.49C267.321 390.027 267.582 390.64 267.556 391.331C267.535 392.016 267.215 392.675 266.594 393.31L263.859 396.107L262.4 394.681L264.942 392.081C265.256 391.761 265.416 391.431 265.423 391.092C265.431 390.752 265.295 390.445 265.014 390.171C264.734 389.897 264.424 389.768 264.085 389.783C263.746 389.798 263.419 389.966 263.106 390.286L260.564 392.886L259.097 391.451L265.305 385.102L266.772 386.537L264.616 388.742C264.972 388.675 265.34 388.705 265.72 388.831C266.101 388.957 266.451 389.177 266.772 389.49ZM275.719 398.239C276.314 398.82 276.61 399.462 276.606 400.163C276.609 400.87 276.296 401.544 275.67 402.185L272.935 404.982L271.476 403.556L274.018 400.956C274.321 400.647 274.47 400.329 274.466 400.001C274.474 399.672 274.334 399.369 274.048 399.089C273.762 398.809 273.453 398.674 273.119 398.684C272.797 398.693 272.484 398.852 272.182 399.161L269.64 401.76L268.182 400.334L270.724 397.735C271.026 397.426 271.175 397.107 271.171 396.779C271.179 396.451 271.04 396.147 270.754 395.867C270.468 395.588 270.158 395.453 269.824 395.462C269.502 395.471 269.19 395.63 268.888 395.939L266.346 398.539L264.878 397.104L269.56 392.317L271.027 393.751L270.44 394.352C270.784 394.297 271.132 394.33 271.485 394.45C271.842 394.565 272.173 394.771 272.476 395.067C272.836 395.42 273.081 395.81 273.21 396.239C273.345 396.673 273.353 397.111 273.234 397.554C273.657 397.453 274.092 397.459 274.541 397.573C274.989 397.687 275.382 397.909 275.719 398.239ZM276.01 403.306C276.497 402.809 277.022 402.472 277.586 402.296C278.155 402.125 278.718 402.116 279.274 402.268C279.836 402.426 280.351 402.734 280.82 403.193C281.421 403.78 281.768 404.427 281.86 405.133C281.959 405.845 281.791 406.548 281.358 407.243L279.796 405.716C280.023 405.222 279.947 404.79 279.57 404.42C279.301 404.158 278.983 404.054 278.616 404.109C278.254 404.158 277.883 404.377 277.503 404.766C277.123 405.155 276.909 405.534 276.862 405.902C276.821 406.264 276.935 406.577 277.204 406.84C277.581 407.209 278.015 407.275 278.504 407.038L280.066 408.564C279.392 409.002 278.695 409.182 277.976 409.106C277.257 409.029 276.6 408.7 276.005 408.118C275.536 407.659 275.216 407.151 275.046 406.593C274.881 406.04 274.878 405.477 275.035 404.904C275.199 404.337 275.524 403.804 276.01 403.306ZM286.832 406.15L280.623 412.5L279.156 411.065L285.364 404.716L286.832 406.15ZM288.616 415.481C288.482 415.618 288.333 415.753 288.171 415.885L284.85 412.638C284.582 412.958 284.453 413.279 284.462 413.601C284.483 413.924 284.616 414.205 284.862 414.446C285.228 414.803 285.634 414.898 286.079 414.729L287.64 416.256C287.252 416.492 286.83 416.633 286.372 416.677C285.92 416.728 285.467 416.67 285.012 416.506C284.558 416.341 284.136 416.069 283.747 415.688C283.278 415.23 282.959 414.721 282.788 414.163C282.618 413.605 282.612 413.039 282.769 412.466C282.927 411.893 283.249 411.358 283.735 410.86C284.222 410.363 284.747 410.026 285.311 409.85C285.88 409.679 286.446 409.673 287.008 409.831C287.57 409.988 288.088 410.299 288.563 410.764C289.026 411.217 289.343 411.717 289.513 412.263C289.683 412.81 289.692 413.362 289.54 413.918C289.394 414.479 289.086 415.001 288.616 415.481ZM287.492 413.627C287.738 413.375 287.848 413.091 287.822 412.775C287.796 412.458 287.654 412.174 287.396 411.922C287.15 411.682 286.872 411.549 286.56 411.524C286.255 411.505 285.953 411.607 285.656 411.831L287.492 413.627ZM289.031 416.021C289.512 415.529 290.026 415.187 290.572 414.994C291.125 414.807 291.659 414.77 292.175 414.883C292.691 414.996 293.146 415.245 293.541 415.631C293.879 415.961 294.106 416.318 294.223 416.701C294.347 417.09 294.368 417.463 294.287 417.821L294.95 417.143L296.417 418.577L291.736 423.365L290.268 421.93L290.931 421.253C290.57 421.336 290.194 421.32 289.802 421.206C289.416 421.097 289.054 420.878 288.717 420.548C288.328 420.167 288.071 419.721 287.947 419.207C287.828 418.688 287.856 418.15 288.03 417.594C288.216 417.037 288.55 416.513 289.031 416.021ZM292.609 419.537C292.967 419.171 293.146 418.781 293.147 418.368C293.154 417.961 293.012 417.614 292.72 417.329C292.428 417.044 292.076 416.906 291.663 416.917C291.262 416.927 290.882 417.115 290.524 417.481C290.166 417.847 289.981 418.237 289.968 418.65C289.967 419.063 290.113 419.412 290.404 419.697C290.696 419.982 291.046 420.117 291.453 420.101C291.866 420.091 292.251 419.903 292.609 419.537ZM298.165 421.848C298.594 421.753 299.01 421.756 299.413 421.859C299.821 421.957 300.183 422.159 300.497 422.467L298.979 424.02L298.576 423.625C298.209 423.267 297.857 423.079 297.517 423.06C297.183 423.036 296.823 423.221 296.437 423.615L294.264 425.838L292.797 424.403L297.478 419.615L298.945 421.05L298.165 421.848ZM304.116 426.005C304.676 426.553 304.944 427.172 304.917 427.863C304.902 428.553 304.585 429.216 303.964 429.851L301.229 432.648L299.77 431.221L302.312 428.622C302.625 428.301 302.786 427.971 302.793 427.632C302.801 427.292 302.664 426.986 302.384 426.712C302.104 426.437 301.794 426.308 301.455 426.323C301.116 426.338 300.789 426.506 300.476 426.826L297.934 429.426L296.467 427.991L301.148 423.204L302.615 424.638L301.995 425.273C302.35 425.207 302.713 425.237 303.082 425.363C303.457 425.483 303.801 425.697 304.116 426.005Z" fill="white"/>
</svg>
