<svg width="605" height="500" viewBox="0 0 605 500" fill="none" xmlns="http://www.w3.org/2000/svg">
<path d="M424.16 10.3374C456.563 10.0593 485.356 33.3007 496.064 63.2952C511.602 106.827 483.72 144.578 461.316 179.471C444.528 205.742 429.761 235.211 431.86 267.199C433.974 299.65 451.579 328.609 454.789 360.875C457.335 386.466 445.531 413.029 426.12 429.549C398.654 452.929 357.409 454.938 326.904 436.24C293.374 415.687 277.898 376.838 247.856 352.469C212.366 323.649 165.706 319.415 123.659 305.692C85.8549 293.33 52.6802 259.627 51.9087 218.073C51.2606 180.105 76.5043 147.824 108.815 130.454C144.86 111.092 185.965 116.886 225.081 117.69C242.563 118.045 261.774 116.964 278.592 110.041C297.294 102.314 309.669 86.7684 322.29 71.7171C338.477 52.4316 357.903 33.2235 380.493 21.6027C393.988 14.5299 408.932 10.6746 424.16 10.3374Z" fill="#00CCFF"/>
<path opacity="0.9" d="M424.16 10.3374C456.563 10.0593 485.356 33.3007 496.064 63.2952C511.602 106.827 483.72 144.578 461.316 179.471C444.528 205.742 429.761 235.211 431.86 267.199C433.974 299.65 451.579 328.609 454.789 360.875C457.335 386.466 445.531 413.029 426.12 429.549C398.654 452.929 357.409 454.938 326.904 436.24C293.374 415.687 277.898 376.838 247.856 352.469C212.366 323.649 165.706 319.415 123.659 305.692C85.8549 293.33 52.6802 259.627 51.9087 218.073C51.2606 180.105 76.5043 147.824 108.815 130.454C144.86 111.092 185.965 116.886 225.081 117.69C242.563 118.045 261.774 116.964 278.592 110.041C297.294 102.314 309.669 86.7684 322.29 71.7171C338.477 52.4316 357.903 33.2235 380.493 21.6027C393.988 14.5299 408.932 10.6746 424.16 10.3374Z" fill="white"/>
<path d="M299.174 499.999C464.404 499.999 598.349 492.168 598.349 482.507C598.349 472.845 464.404 465.014 299.174 465.014C133.945 465.014 0 472.845 0 482.507C0 492.168 133.945 499.999 299.174 499.999Z" fill="#D6D6D6"/>
<path d="M539.869 384.844L561.271 371.029L554.636 389.171H538.635L539.869 384.844Z" fill="#263238"/>
<path opacity="0.2" d="M539.869 384.844L561.271 371.029L554.636 389.171H538.635L539.869 384.844Z" fill="white"/>
<path opacity="0.4" d="M540.302 385.044L561.04 371.662L554.637 389.17H539.021L540.302 385.044Z" fill="white"/>
<path d="M561.314 397.561L577.809 358.882H567.224L552.025 398.272L561.314 397.561Z" fill="#263238"/>
<path opacity="0.2" d="M561.314 397.561L577.809 358.882H567.224L552.025 398.272L561.314 397.561Z" fill="white"/>
<path opacity="0.4" d="M561.315 397.562L577.67 359.207H567.394L552.35 398.242L561.315 397.562Z" fill="white"/>
<path d="M561.967 397.422L578.338 358.635L587.473 358.403L571.719 396.032L561.967 397.422Z" fill="#263238"/>
<path opacity="0.2" d="M561.967 397.422L578.338 358.635L587.473 358.403L571.719 396.032L561.967 397.422Z" fill="white"/>
<path opacity="0.4" d="M562.15 397.391L578.583 358.882L587.379 358.635L571.717 396.031L562.15 397.391Z" fill="white"/>
<path d="M587.997 358.172L596.761 357.986L581.053 394.471L572.289 395.738L587.997 358.172Z" fill="#263238"/>
<path opacity="0.2" d="M587.997 358.172L596.761 357.986L581.053 394.471L572.289 395.738L587.997 358.172Z" fill="white"/>
<path opacity="0.4" d="M588.15 358.404L596.683 358.156L581.052 394.471L572.488 395.707L588.15 358.404Z" fill="white"/>
<path d="M597.314 357.986L604.998 357.754L589.908 393.188L581.514 394.424L597.314 357.986Z" fill="#263238"/>
<path opacity="0.2" d="M597.314 357.986L604.998 357.754L589.908 393.188L581.514 394.424L597.314 357.986Z" fill="white"/>
<path opacity="0.4" d="M597.485 358.155L604.953 357.877L589.909 393.187L581.762 394.377L597.485 358.155Z" fill="white"/>
<path d="M530.89 389.293L517.389 426.489L542.648 419.473L555.146 383.421L530.89 389.293Z" fill="#00CCFF"/>
<path opacity="0.2" d="M530.89 389.293L517.389 426.489L542.648 419.473L555.146 383.421L530.89 389.293Z" fill="black"/>
<path d="M495.632 368.649L530.89 389.295L517.388 426.49L483.025 403.62L495.632 368.649Z" fill="#00CCFF"/>
<path opacity="0.05" d="M495.632 368.649L530.89 389.295L517.388 426.49L483.025 403.62L495.632 368.649Z" fill="black"/>
<path d="M495.631 368.649L521.646 366.64L555.145 383.422L530.889 389.294L495.631 368.649Z" fill="#00CCFF"/>
<path opacity="0.4" d="M495.631 368.649L521.646 366.64L555.145 383.422L530.889 389.294L495.631 368.649Z" fill="white"/>
<path d="M540.535 354.864L541.523 355.374L533.144 377.92L531.895 377.534L540.535 354.864Z" fill="#263238"/>
<path opacity="0.4" d="M540.535 354.864L540.921 355.065L532.311 377.658L531.895 377.534L540.535 354.864Z" fill="white"/>
<path opacity="0.2" d="M541.52 355.375L540.919 355.065L532.309 377.658L533.142 377.921L541.52 355.375Z" fill="white"/>
<path d="M419.005 364.63L401.631 421.22L421.628 418.098L439.265 363.889L419.005 364.63Z" fill="#263238"/>
<path opacity="0.2" d="M419.005 364.63L401.631 421.22L421.628 418.098L439.265 363.889L419.005 364.63Z" fill="white"/>
<path opacity="0.4" d="M419.315 364.955L402.064 421.158L421.63 418.098L439.112 364.337L419.315 364.955Z" fill="white"/>
<path d="M440.13 363.889L422.756 418.098L441.627 415.332L458.878 363.132L440.13 363.889Z" fill="#263238"/>
<path opacity="0.2" d="M440.13 363.889L422.756 418.098L441.627 415.332L458.878 363.132L440.13 363.889Z" fill="white"/>
<path opacity="0.4" d="M440.454 364.338L423.203 418.022L441.627 415.333L458.785 363.457L440.454 364.338Z" fill="white"/>
<path d="M459.632 363.147L442.443 414.9L459.632 412.705L476.822 362.699L459.632 363.147Z" fill="#263238"/>
<path opacity="0.2" d="M459.632 363.147L442.443 414.9L459.632 412.705L476.822 362.699L459.632 363.147Z" fill="white"/>
<path opacity="0.4" d="M459.866 363.456L442.908 414.838L459.634 412.705L476.669 363.132L459.866 363.456Z" fill="white"/>
<path d="M477.515 362.251L460.141 412.458L476.45 410.14L493.315 361.694L477.515 362.251Z" fill="#263238"/>
<path opacity="0.2" d="M477.515 362.251L460.141 412.458L476.45 410.14L493.315 361.694L477.515 362.251Z" fill="white"/>
<path opacity="0.4" d="M477.701 362.577L460.527 412.413L476.451 410.141L493.208 362.005L477.701 362.577Z" fill="white"/>
<path d="M508.239 388.799L506.187 394.748L480.758 399.817L489.646 375.03L508.239 388.799Z" fill="#263238"/>
<path opacity="0.2" d="M508.239 388.799L506.187 394.748L480.758 399.817L489.646 375.03L508.239 388.799Z" fill="white"/>
<path opacity="0.4" d="M508.05 389.295L506.183 394.75L481.217 399.726L489.827 375.526L508.05 389.295Z" fill="white"/>
<path d="M555.702 386.034L531.461 431.265C524.98 428.175 524.934 409.77 529.764 399.2C535.735 388.939 548.99 383.902 555.702 386.034Z" fill="#263238"/>
<g opacity="0.2">
<path d="M533.402 427.618L532.353 429.581C526.351 423.91 526.86 407.653 529.761 399.2C525.194 417.327 533.402 427.618 533.402 427.618Z" fill="black"/>
</g>
<g opacity="0.3">
<path d="M555.7 386.034L531.459 431.265C524.978 428.175 524.932 409.77 529.762 399.2C535.733 388.939 548.988 383.902 555.7 386.034Z" fill="white"/>
</g>
<path opacity="0.2" d="M531.275 397.792C540.857 389.417 547.678 388.103 553.68 389.803L554.652 387.979C547.23 387.052 540.302 388.845 531.275 397.792Z" fill="white"/>
<path d="M534.222 403.124C527.124 415.486 525.551 427.849 530.704 430.816C535.858 433.783 545.779 426.18 552.877 413.91C559.975 401.64 561.549 389.185 556.395 386.233C551.242 383.282 541.32 390.823 534.222 403.124Z" fill="#00CCFF"/>
<path opacity="0.4" d="M534.222 403.124C527.124 415.486 525.551 427.849 530.704 430.816C535.858 433.783 545.779 426.18 552.877 413.91C559.975 401.64 561.549 389.185 556.395 386.233C551.242 383.282 541.32 390.823 534.222 403.124Z" fill="white"/>
<path opacity="0.2" d="M534.254 402.661C532.887 405.096 531.746 407.651 530.844 410.295C530.465 411.298 530.43 412.399 530.742 413.425C531.055 414.451 531.698 415.345 532.572 415.966C535.041 417.388 539.809 413.756 543.219 407.853C546.629 401.95 547.385 395.985 544.916 394.548C543.466 393.713 540.673 394.254 538.651 396.572C537.001 398.462 535.529 400.5 534.254 402.661Z" fill="black"/>
<path d="M547.23 406.849L540.78 404.238L537.123 400.235C536.241 400.51 535.489 401.095 535.004 401.881C534.519 402.668 534.335 403.604 534.484 404.516L539.453 406.154L544.39 411.732L547.23 406.849Z" fill="#263238"/>
<path opacity="0.2" d="M547.23 406.849L540.78 404.238L537.123 400.235C536.241 400.51 535.489 401.095 535.004 401.881C534.519 402.668 534.335 403.604 534.484 404.516L539.453 406.154L544.39 411.732L547.23 406.849Z" fill="white"/>
<path d="M544.776 408.717C543.989 410.093 543.819 411.453 544.39 411.808C544.961 412.163 546.057 411.298 546.844 409.938C547.631 408.578 547.8 407.203 547.229 406.848C546.658 406.492 545.563 407.358 544.776 408.717Z" fill="#263238"/>
<path opacity="0.4" d="M544.776 408.717C543.989 410.093 543.819 411.453 544.39 411.808C544.961 412.163 546.057 411.298 546.844 409.938C547.631 408.578 547.8 407.203 547.229 406.848C546.658 406.492 545.563 407.358 544.776 408.717Z" fill="white"/>
<path opacity="0.2" d="M535.058 401.872C534.604 402.697 534.405 403.638 534.487 404.576L539.455 406.214L544.393 411.793C543.776 411.329 544.208 409.475 544.918 408.501C544.918 408.501 542.973 407.281 535.058 401.872Z" fill="black"/>
<path opacity="0.2" d="M546.796 406.802L540.609 404.469L536.766 400.436L536.52 400.528L540.5 404.515L546.441 406.926L546.796 406.802Z" fill="white"/>
<g opacity="0.2">
<path d="M545.087 408.903C544.423 410.062 544.269 411.237 544.747 411.515C545.225 411.793 546.182 411.082 546.846 409.97C547.509 408.857 547.663 407.636 547.185 407.343C546.707 407.049 545.75 407.729 545.087 408.903Z" fill="black"/>
<path opacity="0.4" d="M545.087 408.903C544.423 410.062 544.269 411.237 544.747 411.515C545.225 411.793 546.182 411.082 546.846 409.97C547.509 408.857 547.663 407.636 547.185 407.343C546.707 407.049 545.75 407.729 545.087 408.903Z" fill="black"/>
</g>
<path d="M534.869 427.958L535.178 428.452L552.861 419.814L552.629 419.351L534.869 427.958Z" fill="#263238"/>
<path opacity="0.1" d="M534.869 427.958L535.178 428.452L552.861 419.814L552.629 419.351L534.869 427.958Z" fill="white"/>
<path d="M557.955 395.12H558.418L558.912 410.635H558.295L557.955 395.12Z" fill="#263238"/>
<path opacity="0.1" d="M557.955 395.12H558.418L558.912 410.635H558.295L557.955 395.12Z" fill="white"/>
<path d="M537.2 398.906L558.91 410.635L558.648 410.991L536.799 399.308L537.2 398.906Z" fill="#263238"/>
<path opacity="0.1" d="M537.2 398.906L558.91 410.635L558.648 410.991L536.799 399.308L537.2 398.906Z" fill="white"/>
<path d="M536.258 400.404L536.628 399.94L553.015 419.133L552.768 419.504L536.258 400.404Z" fill="#263238"/>
<path opacity="0.1" d="M536.258 400.404L536.628 399.94L553.015 419.133L552.768 419.504L536.258 400.404Z" fill="white"/>
<path d="M553.927 414.437C552.384 417.203 551.983 419.984 553.14 420.618C554.298 421.251 556.535 419.598 558.124 416.832C559.713 414.066 560.068 411.284 558.911 410.651C557.754 410.017 555.532 411.67 553.927 414.437Z" fill="#263238"/>
<path opacity="0.2" d="M553.927 414.437C552.384 417.203 551.983 419.984 553.14 420.618C554.298 421.251 556.535 419.598 558.124 416.832C559.713 414.066 560.068 411.284 558.911 410.651C557.754 410.017 555.532 411.67 553.927 414.437Z" fill="white"/>
<path opacity="0.1" d="M554.359 414.683C552.924 417.171 552.615 419.659 553.649 420.262C554.683 420.864 556.735 419.334 558.124 416.862C559.513 414.389 559.867 411.871 558.834 411.268C557.8 410.665 555.794 412.195 554.359 414.683Z" fill="black"/>
<path opacity="0.2" d="M506.186 394.749L483.025 403.619L484.723 398.906L506.186 394.749Z" fill="black"/>
<path d="M526.354 82.3032C549.048 82.3032 567.444 63.879 567.444 41.1516C567.444 18.4242 549.048 0 526.354 0C503.66 0 485.264 18.4242 485.264 41.1516C485.264 63.879 503.66 82.3032 526.354 82.3032Z" fill="#00CCFF"/>
<path opacity="0.4" d="M526.354 82.3032C549.048 82.3032 567.444 63.879 567.444 41.1516C567.444 18.4242 549.048 0 526.354 0C503.66 0 485.264 18.4242 485.264 41.1516C485.264 63.879 503.66 82.3032 526.354 82.3032Z" fill="white"/>
<path opacity="0.4" d="M526.354 82.3032C549.048 82.3032 567.444 63.879 567.444 41.1516C567.444 18.4242 549.048 0 526.354 0C503.66 0 485.264 18.4242 485.264 41.1516C485.264 63.879 503.66 82.3032 526.354 82.3032Z" fill="white"/>
<path opacity="0.2" d="M490.155 21.6341C489.229 26.27 492.438 28.2171 499.49 27.8154C516.205 26.8801 532.542 22.47 547.462 14.8657C550.733 12.625 551.057 10.0752 549.823 7.35547C569.774 23.2258 571.163 44.4429 562.476 60.7459C560.36 63.9571 557.188 66.3246 553.511 67.4371C542.859 71.6369 531.689 74.3763 520.305 75.5809C509.766 77.1262 503.579 76.4308 501.203 73.6801C483.227 59.726 481.714 38.3235 490.155 21.6341Z" fill="white"/>
<path opacity="0.2" d="M485.264 41.1508C485.222 49.0717 487.591 56.8174 492.053 63.3569C494.214 66.4475 501.204 67.0657 512.113 65.5358C526.291 64.0731 540.201 60.6619 553.45 55.3986C560.671 52.5552 565.454 48.9237 567.507 44.3651C567.986 37.0616 566.539 29.7604 563.31 23.1943C562.677 28.8811 558.789 33.5943 550.966 37.1021C535.667 42.8388 519.755 46.7749 503.549 48.831C493.226 50.0209 486.113 48.3211 485.264 41.1508Z" fill="white"/>
<path opacity="0.1" d="M509.828 4.92933C513.747 3.4124 517.811 2.29918 521.956 1.60692C527.403 1.05061 528.344 1.97779 527.742 3.41493C526.124 5.07592 524.208 6.41781 522.095 7.37091C518.809 8.79725 515.321 9.69932 511.757 10.0443C509.272 10.1525 506.634 10.2143 505.137 9.07076C504.396 7.72634 506.618 6.30466 509.828 4.92933Z" fill="black"/>
<path d="M592.718 20.9386C590.666 14.6029 577.164 12.8258 558.324 15.3137C560.008 17.3443 561.467 19.5515 562.676 21.8967C569.418 22.1594 573.878 23.7666 574.85 26.749C577.226 34.1201 557.46 47.1316 530.689 55.8008C503.918 64.47 480.294 65.5517 477.918 58.1806C476.884 55.09 479.368 51.2731 485.294 46.8226C485.216 46.8226 485.71 46.498 485.633 46.5444C485.304 43.9829 485.211 41.3964 485.355 38.8179C468.166 47.997 457.921 57.5625 460.004 63.9909C463.275 74.0818 495.632 72.6292 532.294 60.7303C568.956 48.8315 595.989 31.0295 592.718 20.9386Z" fill="#00CCFF"/>
<path opacity="0.3" d="M592.718 20.9386C590.666 14.6029 577.164 12.8258 558.324 15.3137C560.008 17.3443 561.467 19.5515 562.676 21.8967C569.418 22.1594 573.878 23.7666 574.85 26.749C577.226 34.1201 557.46 47.1316 530.689 55.8008C503.918 64.47 480.294 65.5517 477.918 58.1806C476.884 55.09 479.368 51.2731 485.294 46.8226C485.216 46.8226 485.71 46.498 485.633 46.5444C485.304 43.9829 485.211 41.3964 485.355 38.8179C468.166 47.997 457.921 57.5625 460.004 63.9909C463.275 74.0818 495.632 72.6292 532.294 60.7303C568.956 48.8315 595.989 31.0295 592.718 20.9386Z" fill="white"/>
<path d="M131.423 157.848C154.929 134.306 154.929 96.1373 131.423 72.5955C107.916 49.0537 69.8039 49.0537 46.2971 72.5955C22.7904 96.1373 22.7904 134.306 46.2971 157.848C69.8039 181.39 107.916 181.39 131.423 157.848Z" fill="#00CCFF"/>
<path opacity="0.4" d="M131.423 157.848C154.929 134.306 154.929 96.1373 131.423 72.5955C107.916 49.0537 69.8039 49.0537 46.2971 72.5955C22.7904 96.1373 22.7904 134.306 46.2971 157.848C69.8039 181.39 107.916 181.39 131.423 157.848Z" fill="white"/>
<path opacity="0.2" d="M132.067 119.869L130.694 120.07C130.517 120.099 130.335 120.089 130.162 120.041C129.989 119.993 129.828 119.908 129.691 119.792L127.469 117.922C127.372 117.846 127.269 117.779 127.16 117.721L120.68 114.924C120.461 114.829 120.274 114.674 120.14 114.476L116.483 109.299C116.321 109.062 116.097 108.875 115.835 108.759L113.69 107.77C113.593 107.722 113.489 107.691 113.381 107.677L111.113 107.337C110.801 107.281 110.505 107.154 110.249 106.966L105.435 103.319C105.24 103.176 105.011 103.085 104.771 103.056L101.238 102.593C101.007 102.561 100.773 102.593 100.559 102.685L99.6023 103.103C99.4414 103.172 99.2682 103.207 99.0931 103.207C98.9181 103.207 98.7449 103.172 98.5839 103.103L94.3715 101.156C94.1227 101.033 93.8393 101 93.5691 101.063L89.8351 101.897C89.6012 101.956 89.391 102.086 89.2333 102.268L87.6903 103.968C87.5586 104.114 87.3907 104.222 87.2037 104.282C87.0167 104.342 86.8172 104.351 86.6256 104.308L83.5396 103.659L77.0435 100.754L74.9296 97.4469C74.7726 97.1876 74.7176 96.8791 74.7753 96.5815L75.2382 94.0163L76.7812 90.3385C76.7989 90.3026 76.8064 90.2624 76.8027 90.2226C76.7991 90.1827 76.7844 90.1446 76.7604 90.1126C76.7365 90.0805 76.704 90.0558 76.6668 90.0411C76.6296 90.0264 76.5891 90.0223 76.5497 90.0294L73.8186 90.3539C73.6463 90.376 73.4814 90.4377 73.3369 90.5342C73.1923 90.6307 73.072 90.7594 72.9854 90.9102L72.183 92.301C72.0909 92.4564 71.9682 92.5914 71.8223 92.6976C71.6764 92.8039 71.5103 92.8793 71.3344 92.9191L67.6003 93.7536C67.4285 93.7974 67.2466 93.7738 67.0917 93.6876C66.9368 93.6014 66.8206 93.4591 66.767 93.29L66.3041 91.8838L65.1623 89.7821C65.0573 89.61 65.0018 89.4121 65.0018 89.2104C65.0018 89.0086 65.0573 88.8108 65.1623 88.6386L67.0139 85.9343L67.7391 84.0645C67.8304 83.8218 67.9984 83.6156 68.2175 83.4773L70.6709 81.932C70.9202 81.7788 71.2135 81.7136 71.5041 81.7465L73.834 82.071C73.9814 82.0929 74.1317 82.0836 74.2752 82.0437C74.4187 82.0038 74.5523 81.9341 74.6673 81.8393L75.6085 81.0975C75.7797 80.9714 75.9829 80.8964 76.1948 80.8811L78.8025 80.6957C79.0154 80.6842 79.2277 80.7267 79.4197 80.8193L80.8239 81.4684C80.959 81.5351 81.0727 81.6387 81.1518 81.7671C81.231 81.8956 81.2724 82.0437 81.2713 82.1947V83.4464C81.2713 83.6431 81.3494 83.8318 81.4883 83.9709C81.6272 84.11 81.8156 84.1881 82.012 84.1881H82.4286C82.5617 84.1864 82.6931 84.1574 82.8145 84.1027C82.936 84.0481 83.0449 83.9691 83.1346 83.8706C83.2243 83.7721 83.2928 83.6561 83.3359 83.53C83.3791 83.4039 83.3959 83.2702 83.3853 83.1373L83.2618 82.0556L83.015 79.8612C82.9896 79.6524 83.0293 79.4407 83.1288 79.2554C83.2282 79.07 83.3825 78.92 83.5704 78.8259L86.0701 77.5742L89.3413 73.9736L91.5632 70.6203L95.6676 69.3377C95.8402 69.2852 95.9915 69.179 96.0997 69.0345C96.2079 68.89 96.2674 68.7147 96.2694 68.5341V66.5252C96.2679 66.3473 96.3266 66.1742 96.4358 66.0339C96.5451 65.8936 96.6985 65.7944 96.8712 65.7526L99.5869 65.0881C99.8287 65.0298 100.042 64.8874 100.189 64.6863L101.315 63.0174C101.355 62.9609 101.381 62.8959 101.391 62.8277C101.402 62.7594 101.396 62.6896 101.375 62.6238C101.354 62.5579 101.319 62.4978 101.271 62.4482C101.223 62.3985 101.164 62.3606 101.099 62.3374L96.146 60.514L92.5199 58.7523C92.3631 58.677 92.1892 58.6444 92.0158 58.658C91.8424 58.6716 91.6756 58.7308 91.5324 58.8296L86.9033 62.0593C86.7415 62.1686 86.5544 62.2344 86.3599 62.2507C86.1654 62.2669 85.97 62.2329 85.7924 62.152L82.444 60.6067L79.9289 59.4477C79.8794 59.4261 79.8372 59.3904 79.8076 59.3452C79.778 59.2999 79.7622 59.2469 79.7622 59.1927C79.7622 59.1386 79.778 59.0856 79.8076 59.0403C79.8372 58.995 79.8794 58.9594 79.9289 58.9378L82.4749 58.0878C82.5883 58.053 82.6934 57.9951 82.7835 57.9179L86.2398 55.0127C77.6167 55.4667 69.1941 57.7864 61.5517 61.812C58.4839 69.6389 56.3098 77.7881 55.071 86.1043C55.0482 86.2975 55.0713 86.4933 55.1383 86.6759C55.2053 86.8585 55.3145 87.0227 55.4568 87.1551L64.9309 96.2415C65.0996 96.401 65.317 96.499 65.5481 96.5197L69.0661 96.906C69.2424 96.9201 69.4122 96.9786 69.5599 97.076L83.1384 105.251C83.3017 105.343 83.4341 105.482 83.5192 105.65C83.6042 105.818 83.6382 106.007 83.6167 106.193L82.3052 119.931C82.2457 120.445 82.3656 120.964 82.6446 121.399L89.2796 131.954C89.3669 132.089 89.4764 132.21 89.6036 132.309L94.6955 136.234C94.8178 136.329 94.9124 136.455 94.9694 136.599C95.0264 136.743 95.0437 136.9 95.0196 137.053L93.1988 148.21L89.7271 165.44C90.0665 167.758 93.0754 166.337 97.4421 163.092L101.778 155.952L105.589 154.407L115.341 147.438L122.053 139.819L125.664 131.815C125.726 131.687 125.804 131.568 125.895 131.459L129.568 127.24L132.021 124.691C132.244 124.457 132.371 124.148 132.376 123.825V120.147C132.379 120.107 132.373 120.067 132.358 120.03C132.343 119.993 132.32 119.959 132.29 119.932C132.26 119.906 132.224 119.886 132.186 119.875C132.147 119.864 132.107 119.862 132.067 119.869Z" fill="black"/>
<path d="M115.681 67.7473H115.604C115.611 67.7164 115.611 67.6842 115.604 67.6533L115.681 67.7473Z" fill="white"/>
<path d="M347.95 223.297C352.98 225.955 392.08 270.12 381.65 291.12C373.935 306.574 325.715 313.759 325.715 313.759L319.775 300.578C319.775 300.578 355.079 288.061 357.162 282.575C359.245 277.089 319.574 247.883 319.574 247.883L347.95 223.297Z" fill="#00CCFF"/>
<path opacity="0.3" d="M347.95 223.297C352.98 225.955 392.08 270.12 381.65 291.12C373.935 306.574 325.715 313.759 325.715 313.759L319.775 300.578C319.775 300.578 355.079 288.061 357.162 282.575C359.245 277.089 319.574 247.883 319.574 247.883L347.95 223.297Z" fill="white"/>
<path opacity="0.2" d="M342.58 291.492C341.315 296.623 337.643 300.579 330.143 302.711L334.773 312.091L333.816 312.292L326.502 298.075L342.58 291.492Z" fill="black"/>
<path d="M325.067 295.153L335.297 315.057L315.593 319.523C315.312 319.581 315.047 319.697 314.814 319.865C314.58 320.032 314.385 320.246 314.24 320.494C314.094 320.741 314.002 321.016 313.97 321.302C313.937 321.587 313.964 321.876 314.05 322.15L316.395 329.397C316.59 330.045 316.568 330.739 316.331 331.373C316.094 332.007 315.656 332.545 315.084 332.905L313.541 333.832C313.075 334.109 312.52 334.196 311.992 334.076C311.464 333.955 311.002 333.635 310.702 333.183L293.729 307.516C293.621 307.354 293.553 307.17 293.528 306.977C293.503 306.785 293.523 306.589 293.585 306.406C293.648 306.222 293.752 306.055 293.889 305.918C294.026 305.781 294.193 305.677 294.377 305.615L325.067 295.153Z" fill="#00CCFF"/>
<g opacity="0.2">
<path d="M325.065 295.154L335.295 315.058L315.591 319.524C315.31 319.582 315.045 319.698 314.812 319.866C314.579 320.033 314.383 320.247 314.238 320.494C314.092 320.742 314 321.017 313.968 321.303C313.935 321.588 313.962 321.877 314.048 322.151L316.393 329.398C316.588 330.046 316.566 330.74 316.329 331.374C316.092 332.008 315.654 332.546 315.082 332.906L313.539 333.833C313.073 334.11 312.518 334.197 311.99 334.077C311.462 333.956 311 333.636 310.7 333.184L293.727 307.517C293.619 307.355 293.551 307.171 293.526 306.978C293.501 306.786 293.521 306.59 293.584 306.407C293.646 306.223 293.75 306.056 293.887 305.919C294.024 305.782 294.191 305.678 294.375 305.616L325.065 295.154Z" fill="white"/>
</g>
<path opacity="0.2" d="M306.889 301.335C314.132 303.178 321.648 303.701 329.077 302.88L325.065 295.076L306.889 301.335Z" fill="black"/>
<path opacity="0.2" d="M345.989 269.008L349.23 271.975C352.532 260.029 346.576 248.594 344.601 233.342L341.746 234.145C344.465 245.569 345.888 257.264 345.989 269.008Z" fill="black"/>
<path d="M259.304 351.157L231.283 361.928L226.037 320.653L253.719 309.542L259.304 351.157Z" fill="#00CCFF"/>
<path opacity="0.2" d="M259.304 351.157L231.283 361.928L226.037 320.653L253.719 309.542L259.304 351.157Z" fill="black"/>
<path d="M241.652 310.607C258.332 276.409 275.059 251.761 291.908 248.485L419.531 211.707C450.144 207.071 477.764 216.127 502.221 239.801C497.7 278.217 479.075 298.383 452.35 307.933L320.361 342.672C308.31 345.67 283.561 336.367 241.652 310.607Z" fill="#00CCFF"/>
<path d="M206.054 314.795L251.002 293.608C262.76 301.335 264.01 312.863 260.368 321.949L214.757 336.985C204.959 331.144 202.953 324.715 206.054 314.795Z" fill="#00CCFF"/>
<path d="M174.546 304.595L156.168 306.249C150.505 306.757 145.16 309.095 140.939 312.909L84.1406 364.337L160.998 370.874C165.129 371.229 169.285 370.599 173.126 369.035L187.846 363.008C191.84 361.375 195.37 358.78 198.124 355.454C200.877 352.127 202.769 348.172 203.631 343.939L204.218 341.065C205.1 336.681 204.851 332.143 203.493 327.883L201.826 322.675C200.775 319.372 199.081 316.311 196.842 313.666C194.118 310.482 190.673 307.997 186.794 306.419C182.915 304.841 178.715 304.216 174.546 304.595Z" fill="#00CCFF"/>
<path opacity="0.19" d="M174.546 304.595L156.168 306.249C150.505 306.757 145.16 309.095 140.939 312.909L84.1406 364.337L160.998 370.874C165.129 371.229 169.285 370.599 173.126 369.035L187.846 363.008C191.84 361.375 195.37 358.78 198.124 355.454C200.877 352.127 202.769 348.172 203.631 343.939L204.218 341.065C205.1 336.681 204.851 332.143 203.493 327.883L201.826 322.675C200.775 319.372 199.081 316.311 196.842 313.666C194.118 310.482 190.673 307.997 186.794 306.419C182.915 304.841 178.715 304.216 174.546 304.595Z" fill="white"/>
<path opacity="0.29" d="M186.009 317.7L176.643 318.55C173.774 318.815 171.067 320.002 168.928 321.934L139.996 348.127L179.142 351.496C181.245 351.673 183.36 351.35 185.314 350.553L192.813 347.463C194.848 346.63 196.647 345.307 198.049 343.612C199.451 341.916 200.414 339.9 200.852 337.743L201.146 336.275C201.601 334.045 201.478 331.737 200.791 329.568L199.942 326.91C199.409 325.211 198.544 323.635 197.396 322.274C196.002 320.654 194.241 319.393 192.259 318.597C190.277 317.801 188.134 317.494 186.009 317.7Z" fill="white"/>
<path d="M189.621 323.31L183.757 323.835C181.955 324.004 180.255 324.752 178.912 325.968L160.828 342.348L185.3 344.449C186.619 344.558 187.945 344.357 189.173 343.862L193.802 341.946C195.073 341.422 196.196 340.592 197.071 339.53C197.945 338.468 198.545 337.207 198.817 335.857L199.002 334.946C199.281 333.553 199.201 332.112 198.771 330.758L198.246 329.089C197.923 328.044 197.399 327.073 196.703 326.23C195.84 325.214 194.747 324.418 193.515 323.91C192.283 323.402 190.948 323.196 189.621 323.31Z" fill="#00CCFF"/>
<path opacity="0.1" d="M241.652 310.607C258.332 276.41 275.059 251.762 292.927 248.192L420.456 211.476C450.067 207.072 477.687 216.189 502.143 239.863C497.622 278.279 478.998 298.446 452.273 307.996L320.284 342.734C308.31 345.67 283.561 336.368 241.652 310.607Z" fill="black"/>
<path d="M206.054 314.795L251.002 293.608C248.147 306.048 254.381 316 260.368 321.949L214.757 336.985C204.959 331.144 202.953 324.715 206.054 314.795Z" fill="#00CCFF"/>
<path d="M199.092 383.762L242.034 367.335L249.811 315.49L217.67 327.884L199.092 383.762Z" fill="#00CCFF"/>
<path opacity="0.3" d="M199.092 383.762L242.034 367.335L249.811 315.49L217.67 327.884L199.092 383.762Z" fill="white"/>
<path d="M161.783 280.922L208.583 266.674L246.772 300.408L209.848 315.629L161.783 280.922Z" fill="#00CCFF"/>
<path opacity="0.3" d="M161.783 280.922L208.583 266.674L246.772 300.408L209.848 315.629L161.783 280.922Z" fill="white"/>
<path opacity="0.7" d="M399.98 217.378L406.429 215.523C404.2 217.046 402.324 219.032 400.931 221.347C399.539 223.662 398.661 226.251 398.36 228.937C392.697 258.792 400.119 286.113 418.974 309.772C422.06 312.955 427.106 313.743 431.411 313.481L425.887 314.933C420.054 315.319 417.354 313.388 413.975 310.297C394.98 292.078 386.617 255.763 393.19 229.354C394.394 223.111 397.295 218.15 399.98 217.378Z" fill="white"/>
<path opacity="0.7" d="M385.273 221.612L391.445 219.835C387.526 221.535 384.224 227.793 383.375 233.186C377.728 263.042 385.196 290.007 403.99 314.022C406.644 316.973 411.998 317.715 416.334 317.468L410.563 318.936C404.731 319.322 402.185 317.931 399.021 314.578C380.027 296.359 371.648 260.044 378.222 233.635C379.147 227.407 383.437 222.137 385.273 221.612Z" fill="white"/>
<path d="M497.837 237.87C496.649 241.068 497.189 243.51 500.198 244.823L540.023 232.77C545.995 230.313 548.201 228.752 539.314 229.88L497.837 237.87Z" fill="#00CCFF"/>
<path opacity="0.3" d="M497.837 237.87C496.649 241.068 497.189 243.51 500.198 244.823L540.023 232.77C545.995 230.313 548.201 228.752 539.314 229.88L497.837 237.87Z" fill="black"/>
<path opacity="0.2" d="M256.648 317.669C282.216 326.941 310.978 339.412 323.183 335.734L453.475 301.041C470.649 298.492 486.434 265.036 498.346 243.587C484.458 263.336 470.417 292.434 450.003 296.637L323.183 330.696C308.432 335.595 280.334 323.881 256.648 317.669Z" fill="black"/>
<path opacity="0.4" d="M406.445 218.754C403.939 220.607 402.225 223.339 401.646 226.404L423.249 220.408C443.601 215.973 479.491 229.417 497.313 240.497C481.883 226.775 443.586 210.178 424.792 214.706L406.445 218.754Z" fill="white"/>
<path opacity="0.3" d="M497.684 242.645L499.412 244.423L544.838 230.438L497.684 242.645Z" fill="black"/>
<path opacity="0.2" d="M336.316 235.706L335.205 297.333L291.77 297.565C314.405 306.296 336.98 308.907 342.859 300.115C353.027 283.116 352.58 259.72 345.945 232.909L336.316 235.706Z" fill="black"/>
<path opacity="0.2" d="M346.652 235.628L381.092 225.985C379.795 227.675 378.936 229.661 378.593 231.765L347.732 240.542L346.652 235.628Z" fill="#E6E6E6"/>
<path opacity="0.2" d="M307.768 248.301L290.317 253.879C286.244 255.821 282.578 258.522 279.515 261.838L270.072 272.794L276.568 274.216L284.407 265.067C286.789 262.297 289.715 260.046 293.001 258.453L309.651 252.535L307.768 248.301Z" fill="#E0E0E0"/>
<path d="M274.316 165.348L297.739 183.366L335.497 188.187L358.904 133.978L347.872 118.772L297.739 100.831C285.133 118.788 279.239 141.117 274.316 165.348Z" fill="#00CCFF"/>
<path opacity="0.2" d="M274.316 165.348L297.739 183.366L335.497 188.187L358.904 133.978L347.872 118.772L297.739 100.831C286.83 116.593 279.208 138.537 274.316 165.348Z" fill="white"/>
<path opacity="0.3" d="M274.316 165.348L297.739 183.351L321.98 123.362C314.142 118.865 306.072 111.447 297.739 100.831C287.926 113.719 280.226 135.724 274.316 165.348Z" fill="black"/>
<path d="M338.384 223.344C341.563 227.98 355.079 285.636 335.977 299.204C321.935 309.171 276 292.667 276 292.667L276.972 278.234C276.972 278.234 314.004 283.936 318.433 280.088C322.861 276.24 302.756 241.146 301.691 231.72C300.626 222.294 338.384 223.344 338.384 223.344Z" fill="#00CCFF"/>
<path opacity="0.3" d="M338.384 223.344C341.563 227.98 355.079 285.636 335.977 299.204C321.935 309.171 276 292.667 276 292.667L276.972 278.234C276.972 278.234 314.004 283.936 318.433 280.088C322.861 276.24 302.756 241.146 301.691 231.72C300.626 222.294 338.384 223.344 338.384 223.344Z" fill="white"/>
<path d="M293.096 277.769L291.676 300.099L272.466 293.809C272.192 293.721 271.903 293.691 271.617 293.723C271.332 293.755 271.056 293.846 270.808 293.992C270.56 294.138 270.346 294.335 270.18 294.57C270.013 294.805 269.898 295.072 269.843 295.354L268.145 302.772C267.98 303.429 267.603 304.013 267.073 304.435C266.544 304.856 265.89 305.092 265.214 305.105H263.424C262.881 305.106 262.359 304.898 261.966 304.524C261.572 304.15 261.337 303.639 261.31 303.096L259.89 272.329C259.881 272.134 259.916 271.939 259.994 271.76C260.072 271.581 260.191 271.423 260.34 271.297C260.49 271.171 260.666 271.082 260.856 271.036C261.045 270.99 261.243 270.988 261.433 271.031L293.096 277.769Z" fill="#00CCFF"/>
<path d="M371.868 135.431C371.868 135.431 378.888 169.845 383.687 176.752C388.486 183.66 413.004 206.839 413.004 206.839L410.69 214.041C410.69 214.041 373.873 190.382 371.343 187.059C368.812 183.737 351.639 151.44 351.639 151.44L371.868 135.431Z" fill="#00CCFF"/>
<path d="M383.684 96.9835C383.684 96.9835 381.678 106.765 374.118 108.913C366.557 111.061 374.241 90.0915 374.241 90.0915L381.154 88.3916L383.684 96.9835Z" fill="#263238"/>
<path d="M382.769 120.726C393.495 109.984 393.495 92.5683 382.769 81.8263C372.043 71.0844 354.653 71.0844 343.927 81.8263C333.201 92.5683 333.201 109.984 343.927 120.726C354.653 131.468 372.043 131.468 382.769 120.726Z" fill="#263238"/>
<path opacity="0.2" d="M382.769 120.726C393.495 109.984 393.495 92.5683 382.769 81.8263C372.043 71.0844 354.653 71.0844 343.927 81.8263C333.201 92.5683 333.201 109.984 343.927 120.726C354.653 131.468 372.043 131.468 382.769 120.726Z" fill="white"/>
<path opacity="0.7" d="M370.154 122.497C375.887 121.337 380.957 118.019 384.319 113.225L382.205 111.974C378.405 116.045 373.745 119.213 368.564 121.245L370.154 122.497Z" fill="white"/>
<path opacity="0.7" d="M385.043 111.772L382.852 110.736C383.356 110.166 383.702 109.474 383.855 108.728L385.907 109.778C385.845 110.52 385.542 111.221 385.043 111.772Z" fill="white"/>
<path d="M342.89 121.677C341.347 127.348 357.641 135.322 363.35 129.651C360.264 127.318 359.462 124.876 359.847 122.496C360.132 121.052 360.704 119.681 361.529 118.463C361.96 117.764 362.434 117.093 362.949 116.454L356.005 102.052C354.57 108.388 351.361 122.697 342.89 121.677Z" fill="#FFB573"/>
<path opacity="0.2" d="M355.818 108.79C352.732 115.852 357.361 120.673 359.846 122.497C360.131 121.053 360.702 119.682 361.528 118.464L355.818 108.79Z" fill="black"/>
<path d="M353.519 111.509C354.079 113.827 355.39 115.894 357.245 117.39C359.101 118.885 361.398 119.724 363.78 119.776C366.862 119.918 369.882 118.873 372.22 116.855C372.547 116.582 372.856 116.288 373.146 115.975C378.608 110.164 383.947 98.4662 378.33 91.2496C377.1 89.6508 375.481 88.3949 373.628 87.6021C371.775 86.8093 369.75 86.5062 367.746 86.7217C365.742 86.9373 363.828 87.6643 362.185 88.8332C360.542 90.002 359.226 91.5737 358.364 93.3976C354.522 101.155 351.914 105.528 353.519 111.509Z" fill="#FFB573"/>
<path d="M368.517 101.99C368.417 102.095 368.34 102.219 368.289 102.355C368.239 102.491 368.217 102.635 368.224 102.78C368.231 102.924 368.268 103.066 368.331 103.196C368.395 103.326 368.484 103.441 368.594 103.536C369.011 103.768 369.612 103.536 369.952 102.84C370.291 102.145 370.261 101.558 369.859 101.295C369.458 101.032 368.872 101.419 368.517 101.99Z" fill="#263238"/>
<path d="M375.384 105.993C375.192 106.21 375.094 106.495 375.111 106.785C375.129 107.074 375.26 107.345 375.476 107.538C375.877 107.754 376.479 107.445 376.834 106.843C377.189 106.24 377.143 105.545 376.741 105.297C376.34 105.05 375.723 105.406 375.384 105.993Z" fill="#263238"/>
<path d="M373.04 105.081C372.69 107.358 372.664 109.673 372.963 111.958C372.373 112.018 371.778 111.948 371.218 111.753C370.658 111.559 370.148 111.243 369.723 110.83L373.04 105.081Z" fill="#ED893E"/>
<path d="M367.655 98.5908C367.72 98.6287 367.795 98.6487 367.871 98.6487C367.947 98.6487 368.021 98.6287 368.087 98.5908C368.556 98.3775 369.068 98.2775 369.583 98.299C370.097 98.3204 370.6 98.4628 371.049 98.7144C371.139 98.7557 371.24 98.7639 371.335 98.7376C371.43 98.7113 371.513 98.6521 371.568 98.5705C371.624 98.489 371.648 98.3904 371.638 98.2923C371.628 98.1941 371.583 98.1028 371.512 98.0345C370.949 97.7022 370.315 97.5105 369.662 97.4756C369.009 97.4406 368.358 97.5634 367.763 97.8336C367.661 97.8748 367.579 97.9548 367.536 98.0562C367.492 98.1575 367.491 98.2719 367.531 98.3744C367.559 98.4535 367.601 98.5269 367.655 98.5908Z" fill="#263238"/>
<path d="M366.929 113.363C365.982 112.999 365.137 112.411 364.466 111.649C363.794 110.888 363.316 109.976 363.071 108.99C363.062 108.931 363.076 108.87 363.111 108.821C363.145 108.772 363.197 108.739 363.256 108.728C363.311 108.718 363.368 108.731 363.414 108.763C363.46 108.794 363.492 108.843 363.503 108.897C363.744 109.804 364.192 110.643 364.81 111.348C365.428 112.053 366.201 112.605 367.067 112.962C367.093 112.97 367.117 112.984 367.137 113.002C367.157 113.02 367.174 113.042 367.185 113.067C367.197 113.091 367.203 113.118 367.204 113.145C367.205 113.172 367.201 113.199 367.191 113.224C367.17 113.277 367.129 113.32 367.077 113.343C367.025 113.367 366.966 113.368 366.913 113.348L366.929 113.363Z" fill="#263238"/>
<path d="M379.704 105.312C379.754 105.376 379.825 105.42 379.904 105.436C379.958 105.442 380.013 105.438 380.065 105.422C380.117 105.407 380.165 105.381 380.207 105.346C380.249 105.312 380.283 105.269 380.308 105.22C380.333 105.172 380.348 105.119 380.352 105.065C380.409 104.413 380.308 103.756 380.058 103.151C379.809 102.546 379.417 102.01 378.917 101.588C378.874 101.555 378.826 101.53 378.774 101.516C378.722 101.502 378.668 101.498 378.615 101.506C378.562 101.513 378.51 101.531 378.464 101.558C378.418 101.585 378.378 101.622 378.346 101.665C378.284 101.754 378.26 101.863 378.277 101.97C378.294 102.076 378.352 102.172 378.438 102.237C378.819 102.587 379.114 103.02 379.301 103.502C379.488 103.984 379.563 104.503 379.518 105.019C379.527 105.078 379.549 105.134 379.58 105.185C379.612 105.235 379.654 105.279 379.704 105.312Z" fill="#263238"/>
<path d="M353.398 97.9724C355.095 90.3386 357.826 84.7601 360.557 83.4929C363.288 82.2258 370.047 91.5903 370.047 91.5903C369.635 91.2321 369.135 90.9898 368.599 90.8879C368.063 90.7861 367.509 90.8284 366.995 91.0107C366.481 91.1929 366.024 91.5084 365.671 91.9251C365.318 92.3419 365.081 92.8449 364.986 93.3829C364.631 96.7825 360.758 100.368 357.672 101.017C357.672 101.017 358.243 99.7495 357.055 99.4714C355.867 99.1932 352.873 105.807 353.336 109.918C353.336 109.949 351.639 105.606 353.398 97.9724Z" fill="#263238"/>
<path d="M351.637 97.7104C351.5 99.8784 352.227 102.012 353.659 103.644C355.557 105.792 358.072 104.463 358.843 101.836C359.507 99.503 359.368 95.5161 356.807 94.3571C356.248 94.1031 355.635 93.9938 355.023 94.0394C354.411 94.085 353.821 94.2839 353.306 94.6178C352.791 94.9518 352.369 95.4101 352.077 95.9505C351.786 96.491 351.634 97.0961 351.637 97.7104Z" fill="#FFB573"/>
<path d="M358.178 87.1713C358.178 87.1713 363.501 80.9901 373.886 81.8245C386.585 82.8908 384.887 100.523 382.727 101.28C381.045 101.558 382.357 93.8161 380.551 94.5424C379.163 95.5778 379.163 96.3968 377.712 96.2577C376.894 96.2577 375.922 94.4343 374.95 92.5026C373.052 90.5246 368.701 96.8604 365.476 98.1739C362.544 97.3549 360.091 91.1737 358.178 87.1713Z" fill="#263238"/>
<path d="M297.431 192.453C296.536 207.072 298.403 225.6 302.985 236.602L341.777 234.161L355.401 230.205C352.84 227.562 346.992 213.639 350.973 191.819L297.431 192.453Z" fill="#00CCFF"/>
<g opacity="0.3">
<path d="M297.431 192.453C296.536 207.072 298.403 225.6 302.985 236.602L341.777 234.161L355.401 230.205C352.531 227.114 347.224 213.655 350.973 191.819L297.431 192.453Z" fill="white"/>
</g>
<path opacity="0.2" d="M341.779 234.16L343.924 226.728L351.5 231.348L341.779 234.16Z" fill="black"/>
<path d="M355.82 102.934L355.326 106.55C355.171 107.669 355.31 108.808 355.727 109.857L355.958 110.429C356.378 111.481 357.064 112.404 357.949 113.109C358.833 113.814 359.887 114.275 361.004 114.447L363.334 114.802V115.9L360.248 115.312C359.19 115.107 358.2 114.642 357.366 113.96C356.531 113.278 355.878 112.399 355.465 111.403L354.925 110.089C354.441 108.911 354.313 107.616 354.554 106.365L355.249 102.749L355.82 102.934Z" fill="#263238"/>
<path opacity="0.2" d="M355.82 102.934L355.326 106.55C355.171 107.669 355.31 108.808 355.727 109.857L355.958 110.429C356.378 111.481 357.064 112.404 357.949 113.109C358.833 113.814 359.887 114.275 361.004 114.447L363.334 114.802V115.9L360.248 115.312C359.19 115.107 358.2 114.642 357.366 113.96C356.531 113.278 355.878 112.399 355.465 111.403L354.925 110.089C354.441 108.911 354.313 107.616 354.554 106.365L355.249 102.749L355.82 102.934Z" fill="white"/>
<path d="M365.107 114.152H363.456C362.961 114.152 362.561 114.554 362.561 115.049V116.161C362.561 116.656 362.961 117.058 363.456 117.058H365.107C365.601 117.058 366.001 116.656 366.001 116.161V115.049C366.001 114.554 365.601 114.152 365.107 114.152Z" fill="#263238"/>
<path d="M356.234 98.0957H355.015C354.478 98.0957 354.043 98.5316 354.043 99.0693V102.453C354.043 102.991 354.478 103.427 355.015 103.427H356.234C356.771 103.427 357.206 102.991 357.206 102.453V99.0693C357.206 98.5316 356.771 98.0957 356.234 98.0957Z" fill="#263238"/>
<path opacity="0.15" d="M371.868 135.431C371.868 135.431 378.888 169.845 383.687 176.752C388.486 183.66 414.1 207.89 414.1 207.89L409.733 213.361C409.733 213.361 373.904 190.382 371.374 187.09C368.843 183.799 351.639 151.44 351.639 151.44L371.868 135.431Z" fill="white"/>
<path opacity="0.2" d="M359.785 159.801L365.432 176.892L358.35 163.973L359.785 159.801Z" fill="black"/>
<path d="M297.154 197.011L350.095 200.38C350.095 200.38 356.267 151.965 373.24 136.451L364.522 129.265L341.377 121.229C341.377 121.229 329.558 120.905 322.614 122.388C320.465 125.038 318.505 127.837 316.751 130.764C313.273 136.445 310.26 142.399 307.739 148.566C301.443 163.981 297.861 180.372 297.154 197.011Z" fill="#00CCFF"/>
<path opacity="0.2" d="M350.402 198.232L333.429 186.179C330.343 183.212 321.733 162.52 315.283 148.813L351.451 192.453L350.402 198.232Z" fill="black"/>
<path opacity="0.2" d="M333.012 121.307H334.956L369.365 133.267L370.8 134.442C370.37 135.569 369.517 136.484 368.424 136.992L366.433 137.95C353.812 133.345 342.054 128.925 333.012 121.307Z" fill="#263238"/>
<path d="M335.652 132.34C335.652 132.34 345.234 165.796 350.033 172.703C354.831 179.611 387.265 211.413 387.265 211.413L382.081 217.27C382.081 217.27 339.015 188.357 336.485 185.035C333.954 181.713 315.531 149.786 315.531 149.786C310.593 136.172 328.492 114.94 335.652 132.34Z" fill="#00CCFF"/>
<path opacity="0.15" d="M335.652 132.34C335.652 132.34 345.234 165.796 350.033 172.703C354.831 179.611 387.265 211.413 387.265 211.413L382.081 217.27C382.081 217.27 339.015 188.357 336.485 185.035C333.954 181.713 315.531 149.786 315.531 149.786C310.593 136.172 328.492 114.94 335.652 132.34Z" fill="white"/>
<path d="M320.113 146.696L323.631 153.928C325.174 148.118 327.952 144.656 332.087 143.698L327.983 135.431C323.991 138.012 321.167 142.056 320.113 146.696Z" fill="#00CCFF"/>
<g opacity="0.2">
<path d="M293.096 277.769L291.676 300.099L272.466 293.809C272.192 293.721 271.903 293.691 271.617 293.723C271.332 293.755 271.056 293.846 270.808 293.992C270.56 294.138 270.346 294.335 270.18 294.57C270.013 294.805 269.898 295.072 269.843 295.354L268.145 302.772C267.98 303.429 267.603 304.013 267.073 304.435C266.544 304.856 265.89 305.092 265.214 305.105H263.424C262.881 305.106 262.359 304.898 261.966 304.524C261.572 304.15 261.337 303.639 261.31 303.096L259.89 272.329C259.881 272.134 259.916 271.939 259.994 271.76C260.072 271.581 260.191 271.423 260.34 271.297C260.49 271.171 260.666 271.082 260.856 271.036C261.045 270.99 261.243 270.988 261.433 271.031L293.096 277.769Z" fill="white"/>
</g>
<path d="M377.187 197.614L364.303 210.688L382.402 218.893L386.568 228.397C386.647 228.575 386.768 228.731 386.92 228.852C387.073 228.974 387.252 229.056 387.443 229.092C387.635 229.129 387.832 229.118 388.018 229.062C388.204 229.005 388.374 228.904 388.513 228.768L397.508 219.898C397.622 219.788 397.711 219.655 397.769 219.508C397.827 219.361 397.854 219.204 397.847 219.046C397.839 218.888 397.798 218.733 397.727 218.592C397.655 218.451 397.554 218.327 397.431 218.229L389.022 211.228L377.187 197.614Z" fill="#00CCFF"/>
<path opacity="0.3" d="M377.187 197.614L364.303 210.688L382.402 218.893L386.568 228.397C386.647 228.575 386.768 228.731 386.92 228.852C387.073 228.974 387.252 229.056 387.443 229.092C387.635 229.129 387.832 229.118 388.018 229.062C388.204 229.005 388.374 228.904 388.513 228.768L397.508 219.898C397.622 219.788 397.711 219.655 397.769 219.508C397.827 219.361 397.854 219.204 397.847 219.046C397.839 218.888 397.798 218.733 397.727 218.592C397.655 218.451 397.554 218.327 397.431 218.229L389.022 211.228L377.187 197.614Z" fill="white"/>
<path d="M390.088 206.746L402.987 192.452L414.437 205.695L422.291 209.682C422.401 209.74 422.498 209.82 422.576 209.917C422.655 210.014 422.712 210.126 422.746 210.247C422.779 210.367 422.787 210.493 422.77 210.616C422.753 210.74 422.71 210.858 422.645 210.965L422.429 211.336L409.098 214.736L408.141 213.592L390.088 206.746Z" fill="#00CCFF"/>
<g opacity="0.3">
<path d="M390.086 206.746L402.985 192.452L414.435 205.695L422.289 209.682C422.399 209.74 422.496 209.82 422.575 209.917C422.653 210.014 422.71 210.126 422.744 210.247C422.777 210.367 422.785 210.493 422.768 210.616C422.751 210.74 422.708 210.858 422.643 210.965L422.427 211.336L409.096 214.736L408.139 213.592L390.086 206.746Z" fill="white"/>
</g>
<path d="M390.814 101.28C390.82 97.1629 389.902 93.0975 388.13 89.383C386.358 85.6686 383.776 82.3998 380.574 79.8179C377.373 77.236 373.633 75.4066 369.632 74.4648C365.63 73.523 361.469 73.4928 357.454 74.3763C353.439 75.2598 349.673 77.0345 346.435 79.5696C343.196 82.1047 340.567 85.3356 338.741 89.0238C336.915 92.7121 335.939 96.7638 335.885 100.88C335.831 104.997 336.7 109.073 338.429 112.808L337.318 111.911C334.664 113.457 333.275 116.068 333.368 120.009C343.387 127.545 354.752 133.094 366.851 136.358C368.025 135.349 368.982 134.11 369.661 132.718C370.34 131.326 370.728 129.809 370.801 128.261L369.644 128.013C375.662 126.594 381.026 123.183 384.868 118.331C388.71 113.48 390.805 107.472 390.814 101.28ZM367.669 124.166C363.723 124.166 359.865 122.994 356.585 120.798C353.304 118.603 350.746 115.482 349.236 111.831C347.726 108.18 347.331 104.163 348.101 100.287C348.871 96.4108 350.771 92.8506 353.561 90.0562C356.351 87.2619 359.906 85.3589 363.776 84.5879C367.647 83.8169 371.658 84.2126 375.304 85.7249C378.949 87.2372 382.065 89.7982 384.257 93.0841C386.45 96.3699 387.62 100.233 387.62 104.185C387.624 109.475 385.532 114.55 381.803 118.296C378.074 122.042 373.012 124.153 367.73 124.166H367.669Z" fill="#00CCFF"/>
<path opacity="0.3" d="M390.814 101.28C390.82 97.1629 389.902 93.0975 388.13 89.383C386.358 85.6686 383.776 82.3998 380.574 79.8179C377.373 77.236 373.633 75.4066 369.632 74.4648C365.63 73.523 361.469 73.4928 357.454 74.3763C353.439 75.2598 349.673 77.0345 346.435 79.5696C343.196 82.1047 340.567 85.3356 338.741 89.0238C336.915 92.7121 335.939 96.7638 335.885 100.88C335.831 104.997 336.7 109.073 338.429 112.808L337.318 111.911C334.664 113.457 333.275 116.068 333.368 120.009C343.387 127.545 354.752 133.094 366.851 136.358C368.025 135.349 368.982 134.11 369.661 132.718C370.34 131.326 370.728 129.809 370.801 128.261L369.644 128.013C375.662 126.594 381.026 123.183 384.868 118.331C388.71 113.48 390.805 107.472 390.814 101.28ZM367.669 124.166C363.723 124.166 359.865 122.994 356.585 120.798C353.304 118.603 350.746 115.482 349.236 111.831C347.726 108.18 347.331 104.163 348.101 100.287C348.871 96.4108 350.771 92.8506 353.561 90.0562C356.351 87.2619 359.906 85.3589 363.776 84.5879C367.647 83.8169 371.658 84.2126 375.304 85.7249C378.949 87.2372 382.065 89.7982 384.257 93.0841C386.45 96.3699 387.62 100.233 387.62 104.185C387.624 109.475 385.532 114.55 381.803 118.296C378.074 122.042 373.012 124.153 367.73 124.166H367.669Z" fill="white"/>
<path opacity="0.2" d="M339.569 113.395L347.871 118.772C341.698 114.291 338.165 107.739 337.486 98.8223C336.755 103.779 337.479 108.842 339.569 113.395Z" fill="black"/>
<path opacity="0.2" d="M370.152 77.4816C374.298 78.6255 378.126 80.7108 381.337 83.5757C384.548 86.4406 387.057 90.008 388.668 94.001C387.364 90.2066 385.303 86.7172 382.61 83.7447C379.918 80.7722 376.651 78.3786 373.007 76.709L370.152 77.4816Z" fill="white"/>
<path opacity="0.2" d="M371.373 76.0607L368.642 77.1424L366.266 76.7097L366.883 74.8398C368.456 74.878 369.997 75.2969 371.373 76.0607Z" fill="white"/>
<path opacity="0.2" d="M292.927 280.288L291.754 297.487L292.726 297.75L294.038 280.396L292.927 280.288Z" fill="#263238"/>
</svg>
